<svg xmlns="http://www.w3.org/2000/svg" width="1440" height="900"><path d="M795,379L1157,231L812,163Z" fill="#fcb189" stroke="#fcb189" stroke-width="1.51"/><path d="M795,379L1096,487L1157,231Z" fill="#fa9666" stroke="#fa9666" stroke-width="1.51"/><path d="M1157,231L896,-94L812,163Z" fill="#ffc19b" stroke="#ffc19b" stroke-width="1.51"/><path d="M1157,231L1136,-131L896,-94Z" fill="#ffcba1" stroke="#ffcba1" stroke-width="1.51"/><path d="M795,379L873,733L1096,487Z" fill="#f77e4d" stroke="#f77e4d" stroke-width="1.51"/><path d="M795,379L618,665L873,733Z" fill="#f5794e" stroke="#f5794e" stroke-width="1.51"/><path d="M812,163L506,404L795,379Z" fill="#f6937d" stroke="#f6937d" stroke-width="1.51"/><path d="M486,78L506,404L812,163Z" fill="#fac4ad" stroke="#fac4ad" stroke-width="1.51"/><path d="M1096,487L1440,422L1157,231Z" fill="#f9976b" stroke="#f9976b" stroke-width="1.51"/><path d="M1157,231L1456,175L1136,-131Z" fill="#ffcaa6" stroke="#ffcaa6" stroke-width="1.51"/><path d="M1240,738L1440,422L1096,487Z" fill="#f98c56" stroke="#f98c56" stroke-width="1.51"/><path d="M1440,422L1456,175L1157,231Z" fill="#fab894" stroke="#fab894" stroke-width="1.51"/><path d="M506,404L618,665L795,379Z" fill="#f3795f" stroke="#f3795f" stroke-width="1.51"/><path d="M560,-145L486,78L812,163Z" fill="#ffc5b7" stroke="#ffc5b7" stroke-width="1.51"/><path d="M873,733L1240,738L1096,487Z" fill="#fe9746" stroke="#fe9746" stroke-width="1.51"/><path d="M896,-94L560,-145L812,163Z" fill="#ffb6a5" stroke="#ffb6a5" stroke-width="1.51"/><path d="M940,-365L560,-145L896,-94Z" fill="#ffb9a4" stroke="#ffb9a4" stroke-width="1.51"/><path d="M1456,175L1445,-150L1136,-131Z" fill="#ffceb4" stroke="#ffceb4" stroke-width="1.51"/><path d="M1136,-131L940,-365L896,-94Z" fill="#ffc6a2" stroke="#ffc6a2" stroke-width="1.51"/><path d="M1084,-436L940,-365L1136,-131Z" fill="#ffcaa1" stroke="#ffcaa1" stroke-width="1.51"/><path d="M486,78L304,135L506,404Z" fill="#f7e4d0" stroke="#f7e4d0" stroke-width="1.51"/><path d="M506,404L289,452L618,665Z" fill="#f99e7f" stroke="#f99e7f" stroke-width="1.51"/><path d="M342,-110L304,135L486,78Z" fill="#f9f3e8" stroke="#f9f3e8" stroke-width="1.51"/><path d="M304,135L289,452L506,404Z" fill="#f8d0ba" stroke="#f8d0ba" stroke-width="1.51"/><path d="M1445,-150L1084,-436L1136,-131Z" fill="#ffcdab" stroke="#ffcdab" stroke-width="1.51"/><path d="M620,-436L560,-145L940,-365Z" fill="#ffb6a8" stroke="#ffb6a8" stroke-width="1.51"/><path d="M322,-411L342,-110L560,-145Z" fill="#fcefe4" stroke="#fcefe4" stroke-width="1.51"/><path d="M560,-145L342,-110L486,78Z" fill="#fde4d9" stroke="#fde4d9" stroke-width="1.51"/><path d="M873,733L1213,1076L1240,738Z" fill="#fc9c5c" stroke="#fc9c5c" stroke-width="1.51"/><path d="M612,981L793,1031L873,733Z" fill="#f48565" stroke="#f48565" stroke-width="1.51"/><path d="M612,981L873,733L618,665Z" fill="#f6855d" stroke="#f6855d" stroke-width="1.51"/><path d="M1799,374L1792,214L1456,175Z" fill="#f9bfa1" stroke="#f9bfa1" stroke-width="1.51"/><path d="M1456,175L1732,-68L1445,-150Z" fill="#ffcfba" stroke="#ffcfba" stroke-width="1.51"/><path d="M1240,738L1534,813L1440,422Z" fill="#fb9a5d" stroke="#fb9a5d" stroke-width="1.51"/><path d="M1213,1076L1534,813L1240,738Z" fill="#f99d6f" stroke="#f99d6f" stroke-width="1.51"/><path d="M310,791L612,981L618,665Z" fill="#fbaa83" stroke="#fbaa83" stroke-width="1.51"/><path d="M1084,-436L620,-436L940,-365Z" fill="#ffbea3" stroke="#ffbea3" stroke-width="1.51"/><path d="M1799,374L1456,175L1440,422Z" fill="#f8aa8b" stroke="#f8aa8b" stroke-width="1.51"/><path d="M793,1031L1213,1076L873,733Z" fill="#f99462" stroke="#f99462" stroke-width="1.51"/><path d="M289,452L310,791L618,665Z" fill="#feb989" stroke="#feb989" stroke-width="1.51"/><path d="M1534,813L1799,374L1440,422Z" fill="#f78c63" stroke="#f78c63" stroke-width="1.51"/><path d="M1792,214L1732,-68L1456,175Z" fill="#fdcbb3" stroke="#fdcbb3" stroke-width="1.51"/><path d="M1445,-150L1504,-522L1084,-436Z" fill="#ffceb4" stroke="#ffceb4" stroke-width="1.51"/><path d="M620,-436L322,-411L560,-145Z" fill="#feddd1" stroke="#feddd1" stroke-width="1.51"/><path d="M-6,139L289,452L304,135Z" fill="#f8efe0" stroke="#f8efe0" stroke-width="1.51"/><path d="M-6,139L14,478L289,452Z" fill="#fecebf" stroke="#fecebf" stroke-width="1.51"/><path d="M1534,813L1774,803L1799,374Z" fill="#fb9b60" stroke="#fb9b60" stroke-width="1.51"/><path d="M1734,1023L1774,803L1534,813Z" fill="#f89f77" stroke="#f89f77" stroke-width="1.51"/><path d="M1084,-436L1504,-522L620,-436Z" fill="#ffcba1" stroke="#ffcba1" stroke-width="1.51"/><path d="M620,-436L-46,-415L322,-411Z" fill="#fbf9f1" stroke="#fbf9f1" stroke-width="1.51"/><path d="M1809,-491L1504,-522L1445,-150Z" fill="#ffcfba" stroke="#ffcfba" stroke-width="1.51"/><path d="M1213,1076L1447,1127L1534,813Z" fill="#f89e76" stroke="#f89e76" stroke-width="1.51"/><path d="M1182,1388L1447,1127L1213,1076Z" fill="#f99e6e" stroke="#f99e6e" stroke-width="1.51"/><path d="M289,452L14,478L310,791Z" fill="#ffbd9a" stroke="#ffbd9a" stroke-width="1.51"/><path d="M-6,139L304,135L342,-110Z" fill="#fbf9f1" stroke="#fbf9f1" stroke-width="1.51"/><path d="M-33,-220L-6,139L342,-110Z" fill="#fefdfa" stroke="#fefdfa" stroke-width="1.51"/><path d="M793,1031L927,1353L1213,1076Z" fill="#f99561" stroke="#f99561" stroke-width="1.51"/><path d="M500,1357L927,1353L793,1031Z" fill="#f48465" stroke="#f48465" stroke-width="1.51"/><path d="M310,791L263,998L612,981Z" fill="#f9c2a4" stroke="#f9c2a4" stroke-width="1.51"/><path d="M-50,824L263,998L310,791Z" fill="#fecbb0" stroke="#fecbb0" stroke-width="1.51"/><path d="M1447,1127L1734,1023L1534,813Z" fill="#f79f79" stroke="#f79f79" stroke-width="1.51"/><path d="M500,1357L793,1031L612,981Z" fill="#f69375" stroke="#f69375" stroke-width="1.51"/><path d="M1447,1127L1483,1298L1734,1023Z" fill="#f79f79" stroke="#f79f79" stroke-width="1.51"/><path d="M-392,704L-50,824L14,478Z" fill="#ffcca1" stroke="#ffcca1" stroke-width="1.51"/><path d="M322,-411L-33,-220L342,-110Z" fill="#fcfbf5" stroke="#fcfbf5" stroke-width="1.51"/><path d="M927,1353L1182,1388L1213,1076Z" fill="#fb9c61" stroke="#fb9c61" stroke-width="1.51"/><path d="M1182,1388L1483,1298L1447,1127Z" fill="#f89e74" stroke="#f89e74" stroke-width="1.51"/><path d="M1732,-68L1809,-491L1445,-150Z" fill="#ffcfba" stroke="#ffcfba" stroke-width="1.51"/><path d="M1792,214L1809,-491L1732,-68Z" fill="#ffcfba" stroke="#ffcfba" stroke-width="1.51"/><path d="M1799,374L1809,-491L1792,214Z" fill="#ffceb8" stroke="#ffceb8" stroke-width="1.51"/><path d="M14,478L-50,824L310,791Z" fill="#ffcaa0" stroke="#ffcaa0" stroke-width="1.51"/><path d="M-344,434L14,478L-6,139Z" fill="#ffd2c5" stroke="#ffd2c5" stroke-width="1.51"/><path d="M927,1353L500,1357L1182,1388Z" fill="#f78d63" stroke="#f78d63" stroke-width="1.51"/><path d="M279,1273L500,1357L612,981Z" fill="#f9b596" stroke="#f9b596" stroke-width="1.51"/><path d="M279,1273L612,981L263,998Z" fill="#f9c4a6" stroke="#f9c4a6" stroke-width="1.51"/><path d="M-60,975L279,1273L263,998Z" fill="#fdccb3" stroke="#fdccb3" stroke-width="1.51"/><path d="M-33,-220L-247,-103L-6,139Z" fill="#ffffff" stroke="#ffffff" stroke-width="1.51"/><path d="M322,-411L-46,-415L-33,-220Z" fill="#fefdfb" stroke="#fefdfb" stroke-width="1.51"/><path d="M-311,-430L-46,-415L620,-436Z" fill="#fefdfb" stroke="#fefdfb" stroke-width="1.51"/><path d="M-50,824L-60,975L263,998Z" fill="#ffceb8" stroke="#ffceb8" stroke-width="1.51"/><path d="M-392,704L-60,975L-50,824Z" fill="#ffceb3" stroke="#ffceb3" stroke-width="1.51"/><path d="M-311,-430L-247,-103L-33,-220Z" fill="#ffffff" stroke="#ffffff" stroke-width="1.51"/><path d="M-370,204L-344,434L-6,139Z" fill="#fcede3" stroke="#fcede3" stroke-width="1.51"/><path d="M-247,-103L-370,204L-6,139Z" fill="#fdfcf9" stroke="#fdfcf9" stroke-width="1.51"/><path d="M1182,1388L1847,1367L1483,1298Z" fill="#f79f79" stroke="#f79f79" stroke-width="1.51"/><path d="M1483,1298L1847,1367L1734,1023Z" fill="#f79f79" stroke="#f79f79" stroke-width="1.51"/><path d="M1734,1023L1847,1367L1774,803Z" fill="#f79f79" stroke="#f79f79" stroke-width="1.51"/><path d="M1774,803L1847,1367L1799,374Z" fill="#f89e73" stroke="#f89e73" stroke-width="1.51"/><path d="M1799,374L1847,1367L1809,-491Z" fill="#f58d6f" stroke="#f58d6f" stroke-width="1.51"/><path d="M-344,434L-392,704L14,478Z" fill="#ffbda3" stroke="#ffbda3" stroke-width="1.51"/><path d="M-60,975L-26,1345L279,1273Z" fill="#ffcdb8" stroke="#ffcdb8" stroke-width="1.51"/><path d="M-370,204L-392,704L-344,434Z" fill="#ffb4a6" stroke="#ffb4a6" stroke-width="1.51"/><path d="M279,1273L-26,1345L500,1357Z" fill="#fbcaaf" stroke="#fbcaaf" stroke-width="1.51"/><path d="M500,1357L-26,1345L1182,1388Z" fill="#f8a385" stroke="#f8a385" stroke-width="1.51"/><path d="M-389,1278L-26,1345L-60,975Z" fill="#ffcfba" stroke="#ffcfba" stroke-width="1.51"/><path d="M1504,-522L-311,-430L620,-436Z" fill="#ffc9bc" stroke="#ffc9bc" stroke-width="1.51"/><path d="M-46,-415L-311,-430L-33,-220Z" fill="#ffffff" stroke="#ffffff" stroke-width="1.51"/><path d="M-247,-103L-311,-430L-370,204Z" fill="#ffffff" stroke="#ffffff" stroke-width="1.51"/><path d="M-392,704L-407,1115L-60,975Z" fill="#ffcfba" stroke="#ffcfba" stroke-width="1.51"/><path d="M-407,1115L-389,1278L-60,975Z" fill="#ffcfba" stroke="#ffcfba" stroke-width="1.51"/></svg>