<svg xmlns="http://www.w3.org/2000/svg" width="2065.594" height="1751.674" viewBox="0 0 2065.594 1751.674">
  <g id="trianglify" transform="translate(407.813 522.958)">
    <path id="Path_87" data-name="Path 87" d="M795,360.76l331.431-135.5L810.564,163Z" transform="translate(-101.501 -57.844)" fill="#fcb189" stroke="#fcb189" stroke-width="1.51"/>
    <path id="Path_88" data-name="Path 88" d="M795,366.5l275.583,98.88L1126.431,231Z" transform="translate(-101.501 -63.586)" fill="#fa9666" stroke="#fa9666" stroke-width="1.51"/>
    <path id="Path_89" data-name="Path 89" d="M1127.867,203.556,888.907-94,812,141.3Z" transform="translate(-102.937 -36.142)" fill="#ffc19b" stroke="#ffc19b" stroke-width="1.51"/>
    <path id="Path_90" data-name="Path 90" d="M1134.96,200.431,1115.734-131,896-97.124Z" transform="translate(-110.03 -33.017)" fill="#ffcba1" stroke="#ffcba1" stroke-width="1.51"/>
    <path id="Path_91" data-name="Path 91" d="M795,379l71.413,324.107L1070.583,477.88Z" transform="translate(-101.501 -76.084)" fill="#f77e4d" stroke="#f77e4d" stroke-width="1.51"/>
    <path id="Path_92" data-name="Path 92" d="M780.054,379,618,640.849l233.467,62.258Z" transform="translate(-86.555 -76.084)" fill="#f5794e" stroke="#f5794e" stroke-width="1.51"/>
    <path id="Path_93" data-name="Path 93" d="M786.16,163,506,383.649,770.6,360.76Z" transform="translate(-77.097 -57.844)" fill="#f6937d" stroke="#f6937d" stroke-width="1.51"/>
    <path id="Path_94" data-name="Path 94" d="M486,78l18.311,298.471,280.16-220.649Z" transform="translate(-75.408 -50.666)" fill="#fac4ad" stroke="#fac4ad" stroke-width="1.51"/>
    <path id="Path_95" data-name="Path 95" d="M1096,465.382l314.951-59.511L1151.849,231Z" transform="translate(-126.919 -63.586)" fill="#f9976b" stroke="#f9976b" stroke-width="1.51"/>
    <path id="Path_96" data-name="Path 96" d="M1155.227,200.431l273.751-51.271L1136-131Z" transform="translate(-130.296 -33.017)" fill="#ffcaa6" stroke="#ffcaa6" stroke-width="1.51"/>
    <path id="Path_97" data-name="Path 97" d="M1227.84,711.316,1410.951,422,1096,481.511Z" transform="translate(-126.919 -79.715)" fill="#f98c56" stroke="#f98c56" stroke-width="1.51"/>
    <path id="Path_98" data-name="Path 98" d="M1416.1,401.142,1430.751,175,1157,226.271Z" transform="translate(-132.07 -58.857)" fill="#fab894" stroke="#fab894" stroke-width="1.51"/>
    <path id="Path_99" data-name="Path 99" d="M506,401.889l102.542,238.96L770.6,379Z" transform="translate(-77.097 -76.084)" fill="#f3795f" stroke="#f3795f" stroke-width="1.51"/>
    <path id="Path_100" data-name="Path 100" d="M553.751-145,486,59.169l298.471,77.822Z" transform="translate(-75.408 -31.835)" fill="#ffc5b7" stroke="#ffc5b7" stroke-width="1.51"/>
    <path id="Path_101" data-name="Path 101" d="M873,712.227l336.009,4.578L1077.169,487Z" transform="translate(-108.088 -85.204)" fill="#fe9746" stroke="#fe9746" stroke-width="1.51"/>
    <path id="Path_102" data-name="Path 102" d="M867.627-98.307,560-145,790.72,136.991Z" transform="translate(-81.657 -31.835)" fill="#ffb6a5" stroke="#ffb6a5" stroke-width="1.51"/>
    <path id="Path_103" data-name="Path 103" d="M907.911-365,560-163.578l307.627,46.693Z" transform="translate(-81.657 -13.258)" fill="#ffb9a4" stroke="#ffb9a4" stroke-width="1.51"/>
    <path id="Path_104" data-name="Path 104" d="M1428.978,147.556,1418.907-150,1136-132.6Z" transform="translate(-130.296 -31.413)" fill="#ffceb4" stroke="#ffceb4" stroke-width="1.51"/>
    <path id="Path_105" data-name="Path 105" d="M1115.734-150.76,936.284-365,896-116.884Z" transform="translate(-110.03 -13.258)" fill="#ffc6a2" stroke="#ffc6a2" stroke-width="1.51"/>
    <path id="Path_106" data-name="Path 106" d="M1071.84-436,940-371l179.449,214.24Z" transform="translate(-113.745 -7.262)" fill="#ffcaa1" stroke="#ffcaa1" stroke-width="1.51"/>
    <path id="Path_107" data-name="Path 107" d="M470.631,78,304,130.187,488.942,376.471Z" transform="translate(-60.039 -50.666)" fill="#f7e4d0" stroke="#f7e4d0" stroke-width="1.51"/>
    <path id="Path_108" data-name="Path 108" d="M487.676,404,289,447.947,590.218,642.96Z" transform="translate(-58.773 -78.195)" fill="#f99e7f" stroke="#f99e7f" stroke-width="1.51"/>
    <path id="Path_109" data-name="Path 109" d="M338.791-110,304,114.311,470.631,62.125Z" transform="translate(-60.039 -34.791)" fill="#f9f3e8" stroke="#f9f3e8" stroke-width="1.51"/>
    <path id="Path_110" data-name="Path 110" d="M302.733,135,289,425.231l198.676-43.947Z" transform="translate(-58.773 -55.479)" fill="#f8d0ba" stroke="#f8d0ba" stroke-width="1.51"/>
    <path id="Path_111" data-name="Path 111" d="M1414.516-174.151,1084-436l47.609,279.245Z" transform="translate(-125.905 -7.262)" fill="#ffcdab" stroke="#ffcdab" stroke-width="1.51"/>
    <path id="Path_112" data-name="Path 112" d="M614.933-436,560-169.573,907.911-371Z" transform="translate(-81.657 -7.262)" fill="#ffb6a8" stroke="#ffb6a8" stroke-width="1.51"/>
    <path id="Path_113" data-name="Path 113" d="M322-411l18.311,275.583L539.9-167.462Z" transform="translate(-61.559 -9.373)" fill="#fcefe4" stroke="#fcefe4" stroke-width="1.51"/>
    <path id="Path_114" data-name="Path 114" d="M541.591-145,342-112.956,473.84,59.169Z" transform="translate(-63.248 -31.835)" fill="#fde4d9" stroke="#fde4d9" stroke-width="1.51"/>
    <path id="Path_115" data-name="Path 115" d="M873,733l311.289,314.036,24.72-309.458Z" transform="translate(-108.088 -105.977)" fill="#fc9c5c" stroke="#fc9c5c" stroke-width="1.51"/>
    <path id="Path_116" data-name="Path 116" d="M612,960.058l165.716,45.778L850.96,733Z" transform="translate(-86.048 -105.977)" fill="#f48565" stroke="#f48565" stroke-width="1.51"/>
    <path id="Path_117" data-name="Path 117" d="M612,954.316,850.96,727.258,617.493,665Z" transform="translate(-86.048 -100.234)" fill="#f6855d" stroke="#f6855d" stroke-width="1.51"/>
    <path id="Path_118" data-name="Path 118" d="M1770.036,357.2l-6.409-146.489L1456,175Z" transform="translate(-157.318 -58.857)" fill="#f9bfa1" stroke="#f9bfa1" stroke-width="1.51"/>
    <path id="Path_119" data-name="Path 119" d="M1455.071,147.556l252.694-222.48L1445-150Z" transform="translate(-156.389 -31.413)" fill="#ffcfba" stroke="#ffcfba" stroke-width="1.51"/>
    <path id="Path_120" data-name="Path 120" d="M1240,711.316l269.174,68.667L1423.111,422Z" transform="translate(-139.078 -79.715)" fill="#fb9a5d" stroke="#fb9a5d" stroke-width="1.51"/>
    <path id="Path_121" data-name="Path 121" d="M1213,1047.458l293.894-240.791L1237.72,738Z" transform="translate(-136.798 -106.399)" fill="#f99d6f" stroke="#f99d6f" stroke-width="1.51"/>
    <path id="Path_122" data-name="Path 122" d="M310,780.36,586.5,954.316,591.991,665Z" transform="translate(-60.546 -100.234)" fill="#fbaa83" stroke="#fbaa83" stroke-width="1.51"/>
    <path id="Path_123" data-name="Path 123" d="M1044.818-436H620l292.978,65Z" transform="translate(-86.723 -7.262)" fill="#ffbea3" stroke="#ffbea3" stroke-width="1.51"/>
    <path id="Path_124" data-name="Path 124" d="M1768.685,357.2,1454.649,175,1440,401.142Z" transform="translate(-155.967 -58.857)" fill="#f8aa8b" stroke="#f8aa8b" stroke-width="1.51"/>
    <path id="Path_125" data-name="Path 125" d="M793,1005.836l384.534,41.2L866.245,733Z" transform="translate(-101.332 -105.977)" fill="#f99462" stroke="#f99462" stroke-width="1.51"/>
    <path id="Path_126" data-name="Path 126" d="M289,452l19.227,310.374,281.991-115.36Z" transform="translate(-58.773 -82.248)" fill="#feb989" stroke="#feb989" stroke-width="1.51"/>
    <path id="Path_127" data-name="Path 127" d="M1526.062,775.929,1768.685,374,1440,417.947Z" transform="translate(-155.967 -75.661)" fill="#f78c63" stroke="#f78c63" stroke-width="1.51"/>
    <path id="Path_128" data-name="Path 128" d="M1763.627,190.187,1708.694-68,1456,154.48Z" transform="translate(-157.318 -38.337)" fill="#fdcbb3" stroke="#fdcbb3" stroke-width="1.51"/>
    <path id="Path_129" data-name="Path 129" d="M1414.516-181.413,1468.534-522,1084-443.262Z" transform="translate(-125.905)" fill="#ffceb4" stroke="#ffceb4" stroke-width="1.51"/>
    <path id="Path_130" data-name="Path 130" d="M594.836-436,322-413.111,539.9-169.573Z" transform="translate(-61.559 -7.262)" fill="#feddd1" stroke="#feddd1" stroke-width="1.51"/>
    <path id="Path_131" data-name="Path 131" d="M-6,138.662,264.089,425.231,277.823,135Z" transform="translate(-33.862 -55.479)" fill="#f8efe0" stroke="#f8efe0" stroke-width="1.51"/>
    <path id="Path_132" data-name="Path 132" d="M-6,139,12.311,449.374l251.778-23.8Z" transform="translate(-33.862 -55.817)" fill="#fecebf" stroke="#fecebf" stroke-width="1.51"/>
    <path id="Path_133" data-name="Path 133" d="M1534,775.929l219.734-9.156L1776.623,374Z" transform="translate(-163.905 -75.661)" fill="#fb9b60" stroke="#fb9b60" stroke-width="1.51"/>
    <path id="Path_134" data-name="Path 134" d="M1717.111,1004.422,1753.734,803,1534,812.156Z" transform="translate(-163.905 -111.888)" fill="#f89f77" stroke="#f89f77" stroke-width="1.51"/>
    <path id="Path_135" data-name="Path 135" d="M1044.818-443.262,1429.352-522,620-443.262Z" transform="translate(-86.723)" fill="#ffcba1" stroke="#ffcba1" stroke-width="1.51"/>
    <path id="Path_136" data-name="Path 136" d="M563.761-436-46-416.773l336.925,3.662Z" transform="translate(-30.484 -7.262)" fill="#fbf9f1" stroke="#fbf9f1" stroke-width="1.51"/>
    <path id="Path_137" data-name="Path 137" d="M1778.263-493.618,1499.018-522,1445-181.413Z" transform="translate(-156.389)" fill="#ffcfba" stroke="#ffcfba" stroke-width="1.51"/>
    <path id="Path_138" data-name="Path 138" d="M1213,1053.791l214.24,46.693L1506.894,813Z" transform="translate(-136.798 -112.732)" fill="#f89e76" stroke="#f89e76" stroke-width="1.51"/>
    <path id="Path_139" data-name="Path 139" d="M1182,1361.654l242.622-238.96L1210.382,1076Z" transform="translate(-134.181 -134.941)" fill="#f99e6e" stroke="#f99e6e" stroke-width="1.51"/>
    <path id="Path_140" data-name="Path 140" d="M265.778,452,14,475.8,285,762.374Z" transform="translate(-35.551 -82.248)" fill="#ffbd9a" stroke="#ffbd9a" stroke-width="1.51"/>
    <path id="Path_141" data-name="Path 141" d="M-6,117.974l283.823-3.662L312.614-110Z" transform="translate(-33.862 -34.791)" fill="#fbf9f1" stroke="#fbf9f1" stroke-width="1.51"/>
    <path id="Path_142" data-name="Path 142" d="M-33-220-8.28,108.685,310.334-119.289Z" transform="translate(-31.582 -25.502)" fill="#fefdfa" stroke="#fefdfa" stroke-width="1.51"/>
    <path id="Path_143" data-name="Path 143" d="M793,1031l122.685,294.809L1177.534,1072.2Z" transform="translate(-101.332 -131.141)" fill="#f99561" stroke="#f99561" stroke-width="1.51"/>
    <path id="Path_144" data-name="Path 144" d="M500,1329.471l390.943-3.662L768.258,1031Z" transform="translate(-76.59 -131.141)" fill="#f48465" stroke="#f48465" stroke-width="1.51"/>
    <path id="Path_145" data-name="Path 145" d="M306.031,791,263,980.52l319.529-15.565Z" transform="translate(-56.577 -110.874)" fill="#f9c2a4" stroke="#f9c2a4" stroke-width="1.51"/>
    <path id="Path_146" data-name="Path 146" d="M-50,821.213,236.569,980.52,279.6,791Z" transform="translate(-30.146 -110.874)" fill="#fecbb0" stroke="#fecbb0" stroke-width="1.51"/>
    <path id="Path_147" data-name="Path 147" d="M1447,1100.485l262.765-95.218L1526.653,813Z" transform="translate(-156.558 -112.732)" fill="#f79f79" stroke="#f79f79" stroke-width="1.51"/>
    <path id="Path_148" data-name="Path 148" d="M500,1325.249l268.258-298.471L602.542,981Z" transform="translate(-76.59 -126.919)" fill="#f69375" stroke="#f69375" stroke-width="1.51"/>
    <path id="Path_149" data-name="Path 149" d="M1447,1118.218l32.96,156.56L1709.765,1023Z" transform="translate(-156.558 -130.465)" fill="#f79f79" stroke="#f79f79" stroke-width="1.51"/>
    <path id="Path_150" data-name="Path 150" d="M-392,684.916-78.88,794.783-20.284,478Z" transform="translate(-1.267 -84.444)" fill="#ffcca1" stroke="#ffcca1" stroke-width="1.51"/>
    <path id="Path_151" data-name="Path 151" d="M292.023-411-33-236.129,310.334-135.417Z" transform="translate(-31.582 -9.373)" fill="#fcfbf5" stroke="#fcfbf5" stroke-width="1.51"/>
    <path id="Path_152" data-name="Path 152" d="M927,1329.609l233.467,32.044L1188.849,1076Z" transform="translate(-112.648 -134.941)" fill="#fb9c61" stroke="#fb9c61" stroke-width="1.51"/>
    <path id="Path_153" data-name="Path 153" d="M1182,1365.96l275.583-82.4L1424.622,1127Z" transform="translate(-134.181 -139.247)" fill="#f89e74" stroke="#f89e74" stroke-width="1.51"/>
    <path id="Path_154" data-name="Path 154" d="M1707.765-103.72l70.5-387.28L1445-178.8Z" transform="translate(-156.389 -2.618)" fill="#ffcfba" stroke="#ffcfba" stroke-width="1.51"/>
    <path id="Path_155" data-name="Path 155" d="M1786.933,154.467,1802.5-491,1732-103.72Z" transform="translate(-180.625 -2.618)" fill="#ffcfba" stroke="#ffcfba" stroke-width="1.51"/>
    <path id="Path_156" data-name="Path 156" d="M1798.409,300.956,1807.564-491,1792,154.467Z" transform="translate(-185.691 -2.618)" fill="#ffceb8" stroke="#ffceb8" stroke-width="1.51"/>
    <path id="Path_157" data-name="Path 157" d="M8.6,478-50,794.783l329.6-30.213Z" transform="translate(-30.146 -84.444)" fill="#ffcaa0" stroke="#ffcaa0" stroke-width="1.51"/>
    <path id="Path_158" data-name="Path 158" d="M-344,409.089l327.769,40.284L-34.542,139Z" transform="translate(-5.32 -55.817)" fill="#ffd2c5" stroke="#ffd2c5" stroke-width="1.51"/>
    <path id="Path_159" data-name="Path 159" d="M890.943,1353,500,1356.662l624.41,28.382Z" transform="translate(-76.59 -158.332)" fill="#f78d63" stroke="#f78d63" stroke-width="1.51"/>
    <path id="Path_160" data-name="Path 160" d="M279,1248.343l202.338,76.907L583.88,981Z" transform="translate(-57.928 -126.919)" fill="#f9b596" stroke="#f9b596" stroke-width="1.51"/>
    <path id="Path_161" data-name="Path 161" d="M277.649,1248.343,582.529,981,263,996.565Z" transform="translate(-56.577 -126.919)" fill="#f9c4a6" stroke="#f9c4a6" stroke-width="1.51"/>
    <path id="Path_162" data-name="Path 162" d="M-60,975l310.374,272.836L235.725,996.058Z" transform="translate(-29.302 -126.412)" fill="#fdccb3" stroke="#fdccb3" stroke-width="1.51"/>
    <path id="Path_163" data-name="Path 163" d="M-51.071-220-247-112.88-26.351,108.685Z" transform="translate(-13.511 -25.502)" fill="#fff" stroke="#fff" stroke-width="1.51"/>
    <path id="Path_164" data-name="Path 164" d="M290.925-411.338-46-415l11.9,178.534Z" transform="translate(-30.484 -9.035)" fill="#fefdfb" stroke="#fefdfb" stroke-width="1.51"/>
    <path id="Path_165" data-name="Path 165" d="M-311-430.507l242.622,13.733L541.383-436Z" transform="translate(-8.107 -7.262)" fill="#fefdfb" stroke="#fefdfb" stroke-width="1.51"/>
    <path id="Path_166" data-name="Path 166" d="M-50.844,824-60,962.249l295.725,21.058Z" transform="translate(-29.302 -113.661)" fill="#ffceb8" stroke="#ffceb8" stroke-width="1.51"/>
    <path id="Path_167" data-name="Path 167" d="M-392,704-88.035,952.116l9.156-138.249Z" transform="translate(-1.267 -103.528)" fill="#ffceb3" stroke="#ffceb3" stroke-width="1.51"/>
    <path id="Path_168" data-name="Path 168" d="M-311-430l58.6,299.387,195.929-107.12Z" transform="translate(-8.107 -7.769)" fill="#fff" stroke="#fff" stroke-width="1.51"/>
    <path id="Path_169" data-name="Path 169" d="M-370,198.511l23.8,210.578L-36.737,139Z" transform="translate(-3.124 -55.817)" fill="#fcede3" stroke="#fcede3" stroke-width="1.51"/>
    <path id="Path_170" data-name="Path 170" d="M-257.387-103-370,178.076l333.263-59.511Z" transform="translate(-3.124 -35.382)" fill="#fdfcf9" stroke="#fdfcf9" stroke-width="1.51"/>
    <path id="Path_171" data-name="Path 171" d="M1182,1380.4l608.845-19.227L1457.583,1298Z" transform="translate(-134.181 -153.687)" fill="#f79f79" stroke="#f79f79" stroke-width="1.51"/>
    <path id="Path_172" data-name="Path 172" d="M1483,1274.778l333.263,63.173L1712.8,1023Z" transform="translate(-159.598 -130.465)" fill="#f79f79" stroke="#f79f79" stroke-width="1.51"/>
    <path id="Path_173" data-name="Path 173" d="M1734,1004.422l103.458,314.951L1770.622,803Z" transform="translate(-180.794 -111.888)" fill="#f79f79" stroke="#f79f79" stroke-width="1.51"/>
    <path id="Path_174" data-name="Path 174" d="M1774,766.774l66.836,516.374L1796.889,374Z" transform="translate(-184.171 -75.661)" fill="#f89e73" stroke="#f89e73" stroke-width="1.51"/>
    <path id="Path_175" data-name="Path 175" d="M1799,300.956l43.947,909.148L1808.156-491Z" transform="translate(-186.282 -2.618)" fill="#f58d6f" stroke="#f58d6f" stroke-width="1.51"/>
    <path id="Path_176" data-name="Path 176" d="M-348.053,434-392,681.2-20.284,474.284Z" transform="translate(-1.267 -80.728)" fill="#ffbda3" stroke="#ffbda3" stroke-width="1.51"/>
    <path id="Path_177" data-name="Path 177" d="M-60,975l31.129,338.756,279.245-65.92Z" transform="translate(-29.302 -126.412)" fill="#ffcdb8" stroke="#ffcdb8" stroke-width="1.51"/>
    <path id="Path_178" data-name="Path 178" d="M-371.858,204-392,661.778l43.947-247.2Z" transform="translate(-1.267 -61.306)" fill="#ffb4a6" stroke="#ffb4a6" stroke-width="1.51"/>
    <path id="Path_179" data-name="Path 179" d="M253.245,1273-26,1338.92l481.583,10.987Z" transform="translate(-32.173 -151.576)" fill="#fbcaaf" stroke="#fbcaaf" stroke-width="1.51"/>
    <path id="Path_180" data-name="Path 180" d="M455.583,1355.987-26,1345l1105.992,39.369Z" transform="translate(-32.173 -157.656)" fill="#f8a385" stroke="#f8a385" stroke-width="1.51"/>
    <path id="Path_181" data-name="Path 181" d="M-389,1252.414l332.347,61.342L-87.782,975Z" transform="translate(-1.52 -126.412)" fill="#ffcfba" stroke="#ffcfba" stroke-width="1.51"/>
    <path id="Path_182" data-name="Path 182" d="M1350.735-522-311-437.769l852.383-5.493Z" transform="translate(-8.107)" fill="#ffc9bc" stroke="#ffc9bc" stroke-width="1.51"/>
    <path id="Path_183" data-name="Path 183" d="M-68.378-416.267-311-430-56.475-237.733Z" transform="translate(-8.107 -7.769)" fill="#fff" stroke="#fff" stroke-width="1.51"/>
    <path id="Path_184" data-name="Path 184" d="M-257.387-130.613-315.982-430-370,150.463Z" transform="translate(-3.124 -7.769)" fill="#fff" stroke="#fff" stroke-width="1.51"/>
    <path id="Path_185" data-name="Path 185" d="M-393.267,704-407,1080.294-89.3,952.116Z" transform="translate(0 -103.528)" fill="#ffcfba" stroke="#ffcfba" stroke-width="1.51"/>
    <path id="Path_186" data-name="Path 186" d="M-407,1103.178l16.48,149.236L-89.3,975Z" transform="translate(0 -126.412)" fill="#ffcfba" stroke="#ffcfba" stroke-width="1.51"/>
  </g>
</svg>
