<svg xmlns="http://www.w3.org/2000/svg" width="20" height="20" viewBox="0 0 20 20">
  <path id="path" d="M707.2,1082.8a9.506,9.506,0,0,1,7.1-2.9,9.9,9.9,0,0,1,7.1,2.9,9.356,9.356,0,0,1,2.9,7.1,9.9,9.9,0,0,1-2.9,7.1,9.356,9.356,0,0,1-7.1,2.9,9.9,9.9,0,0,1-7.1-2.9,10.141,10.141,0,0,1,0-14.2Zm-.7,9h3.4a13.405,13.405,0,0,1-.1-2,12.753,12.753,0,0,1,.1-2h-3.4a9.629,9.629,0,0,0-.3,2A8.793,8.793,0,0,0,706.5,1091.8Zm3.8-6a17.829,17.829,0,0,1,1.4-3.6,7.469,7.469,0,0,0-4.4,3.6Zm-3,8a7.846,7.846,0,0,0,4.4,3.6,14.191,14.191,0,0,1-1.4-3.6Zm9.3-2a13.405,13.405,0,0,0,.1-2,12.753,12.753,0,0,0-.1-2h-4.7a13.405,13.405,0,0,0-.1,2,12.753,12.753,0,0,0,.1,2Zm-2.4-10a13.3,13.3,0,0,0-1.9,4h3.8A12.139,12.139,0,0,0,714.2,1081.8Zm0,16a13.3,13.3,0,0,0,1.9-4h-3.8A16.245,16.245,0,0,0,714.2,1097.8Zm7-12a7.846,7.846,0,0,0-4.4-3.6,14.191,14.191,0,0,1,1.4,3.6Zm-4.4,11.6a7.469,7.469,0,0,0,4.4-3.6h-3A17.832,17.832,0,0,1,716.8,1097.4Zm1.8-5.6H722a6.817,6.817,0,0,0,0-4h-3.4a13.405,13.405,0,0,1,.1,2A12.746,12.746,0,0,1,718.6,1091.8Z" transform="translate(-704.3 -1079.9)"/>
</svg>
