<svg xmlns="http://www.w3.org/2000/svg" xmlns:xlink="http://www.w3.org/1999/xlink" width="375" height="812" viewBox="0 0 375 812">
  <defs>
    <linearGradient id="linear-gradient" x2="1" y2="1" gradientUnits="objectBoundingBox">
      <stop offset="0" stop-color="#ee6352"/>
      <stop offset="1" stop-color="#ff9a44"/>
    </linearGradient>
    <clipPath id="clip-Landing_Page_1">
      <rect width="375" height="812"/>
    </clipPath>
  </defs>
  <g id="Landing_Page_1" data-name="Landing Page – 1" clip-path="url(#clip-Landing_Page_1)">
    <rect width="375" height="812" fill="#f4f1de"/>
    <path id="Landing_Page_Background" data-name="Landing_Page Background" d="M0,0V663.647l375,14.569V0Z" fill="url(#linear-gradient)"/>
    <g id="Nav_Bar" data-name="Nav Bar">
      <g id="Group_2299" data-name="Group 2299" transform="translate(-249 -170)" opacity="0.5">
        <g id="Group_2298" data-name="Group 2298" transform="translate(18.643 255.627)">
          <path id="Path_1" data-name="Path 1" d="M1144.708,278.129l-4.88,248.1,326.191,225.243,208.242-366.782Z" transform="translate(-1119.649 -258.741)" fill="#ee6352"/>
          <line id="Line_1" data-name="Line 1" x1="325.975" y1="228.635" transform="translate(19.808 264.289)" fill="none" stroke="#f4f1de" stroke-width="7"/>
          <line id="Line_4" data-name="Line 4" x1="5.659" y2="243.349" transform="translate(19.808 20.939)" fill="none" stroke="#f4f1de" stroke-width="7"/>
          <line id="Line_2" data-name="Line 2" y1="366.722" x2="208.262" transform="translate(345.782 126.202)" fill="none" stroke="#f4f1de" stroke-width="7"/>
          <line id="Line_3" data-name="Line 3" x2="528.577" y2="105.263" transform="translate(25.467 20.939)" fill="none" stroke="#f4f1de" stroke-width="7"/>
          <g id="Ellipse_1" data-name="Ellipse 1" transform="translate(324.843 471.985)" fill="#f4f1de" stroke="#3d405b" stroke-width="10">
            <circle cx="20.373" cy="20.373" r="20.373" stroke="none"/>
            <circle cx="20.373" cy="20.373" r="15.373" fill="none"/>
          </g>
          <g id="Ellipse_2" data-name="Ellipse 2" transform="translate(4.527)" fill="#f4f1de" stroke="#3d405b" stroke-width="10">
            <circle cx="20.373" cy="20.373" r="20.373" stroke="none"/>
            <circle cx="20.373" cy="20.373" r="15.373" fill="none"/>
          </g>
          <g id="Ellipse_4" data-name="Ellipse 4" transform="translate(0 244.481)" fill="#f4f1de" stroke="#3d405b" stroke-width="10">
            <circle cx="20.373" cy="20.373" r="20.373" stroke="none"/>
            <circle cx="20.373" cy="20.373" r="15.373" fill="none"/>
          </g>
          <g id="Ellipse_3" data-name="Ellipse 3" transform="translate(533.105 105.263)" fill="#f4f1de" stroke="#3d405b" stroke-width="10">
            <circle cx="20.373" cy="20.373" r="20.373" stroke="none"/>
            <circle cx="20.373" cy="20.373" r="15.373" fill="none"/>
          </g>
        </g>
      </g>
    </g>
  </g>
</svg>
