<svg xmlns="http://www.w3.org/2000/svg" xmlns:xlink="http://www.w3.org/1999/xlink" width="1920" height="1080" viewBox="0 0 1920 1080">
  <defs>
    <linearGradient id="linear-gradient" x2="1" y2="1" gradientUnits="objectBoundingBox">
      <stop offset="0" stop-color="#ee6352"/>
      <stop offset="1" stop-color="#ff9a44"/>
    </linearGradient>
    <clipPath id="clip-LANDING_PAGE_1">
      <rect width="1920" height="1080"/>
    </clipPath>
  </defs>
  <g id="LANDING_PAGE_1" data-name="LANDING PAGE – 1" clip-path="url(#clip-LANDING_PAGE_1)">
    <rect width="1920" height="1080" fill="#f4f1de"/>
    <path id="Landing_Page_Background" data-name="Landing_Page Background" d="M0,0V948.947l1920,60V0Z" fill="url(#linear-gradient)"/>
    <g id="Landing_Page_Shapes" data-name="Landing_Page Shapes">
      <path id="Path_1" data-name="Path 1" d="M1144.14,278.129l-4.312,219.2,288.191,199L1612,372.277Z" fill="#ee6352"/>
      <path id="Path_2" data-name="Path 2" d="M1346.5,200l192.031,32.742L1648.544-.553H1235.026Z" fill="#ee6352"/>
      <path id="Path_3" data-name="Path 3" d="M1126,655l-27.856,124.05,212.011,16.53Z" fill="#ee6352"/>
      <path id="Path_4" data-name="Path 4" d="M1536.316,996.316l-7.173-79.024L1740.6,802.063l179.915-55.25v261.5Z" fill="#ee6352"/>
      <path id="Path_5" data-name="Path 5" d="M1920.842,655.5,1803.17,539.01l117.672-79.774Z" fill="#ee6352"/>
      <line id="Line_1" data-name="Line 1" x1="288" y1="202" transform="translate(1139.5 494.5)" fill="none" stroke="#f4f1de" stroke-width="7"/>
      <line id="Line_13" data-name="Line 13" x1="213" y2="115" transform="translate(1527.5 802.5)" fill="none" stroke="#f4f1de" stroke-width="7"/>
      <line id="Line_15" data-name="Line 15" x1="9" y1="79" transform="translate(1529.5 917.5)" fill="none" stroke="#f4f1de" stroke-width="7"/>
      <line id="Line_14" data-name="Line 14" y1="55" x2="180" transform="translate(1740.5 747.5)" fill="none" stroke="#f4f1de" stroke-width="7"/>
      <line id="Line_9" data-name="Line 9" x1="183" y1="140" transform="translate(1126.5 655.5)" fill="none" stroke="#f4f1de" stroke-width="7"/>
      <line id="Line_17" data-name="Line 17" y1="80" x2="117" transform="translate(1803.5 460.5)" fill="none" stroke="#f4f1de" stroke-width="7"/>
      <line id="Line_18" data-name="Line 18" x2="117" y2="115" transform="translate(1803.5 540.5)" fill="none" stroke="#f4f1de" stroke-width="7"/>
      <line id="Line_10" data-name="Line 10" x1="210" y1="18" transform="translate(1099.5 777.5)" fill="none" stroke="#f4f1de" stroke-width="7"/>
      <line id="Line_12" data-name="Line 12" x1="300" y2="76" transform="translate(1145.5 881.5)" fill="none" stroke="#f4f1de" stroke-width="7"/>
      <line id="Line_11" data-name="Line 11" x1="27" y2="122" transform="translate(1099.5 655.5)" fill="none" stroke="#f4f1de" stroke-width="7"/>
      <line id="Line_5" data-name="Line 5" y1="411" x2="220" transform="translate(1537.5 372.5)" fill="none" stroke="#f4f1de" stroke-width="7"/>
      <line id="Line_16" data-name="Line 16" x1="126" y2="14" transform="translate(1794.5 200.5)" fill="none" stroke="#f4f1de" stroke-width="7"/>
      <line id="Line_4" data-name="Line 4" x1="5" y2="215" transform="translate(1139.5 279.5)" fill="none" stroke="#f4f1de" stroke-width="7"/>
      <line id="Line_2" data-name="Line 2" y1="324" x2="184" transform="translate(1427.5 372.5)" fill="none" stroke="#f4f1de" stroke-width="7"/>
      <line id="Line_3" data-name="Line 3" x2="467" y2="93" transform="translate(1144.5 279.5)" fill="none" stroke="#f4f1de" stroke-width="7"/>
      <line id="Line_6" data-name="Line 6" x2="191" y2="33" transform="translate(1346.5 199.5)" fill="none" stroke="#f4f1de" stroke-width="7"/>
      <line id="Line_8" data-name="Line 8" x1="110" y2="232" transform="translate(1537.5 0.5)" fill="none" stroke="#f4f1de" stroke-width="7"/>
      <line id="Line_7" data-name="Line 7" x1="111" y1="199" transform="translate(1235.5 0.5)" fill="none" stroke="#f4f1de" stroke-width="7"/>
      <g id="Ellipse_1" data-name="Ellipse 1" transform="translate(1409 678)" fill="#f4f1de" stroke="#3d405b" stroke-width="10">
        <circle cx="18" cy="18" r="18" stroke="none"/>
        <circle cx="18" cy="18" r="13" fill="none"/>
      </g>
      <g id="Ellipse_2" data-name="Ellipse 2" transform="translate(1126 261)" fill="#f4f1de" stroke="#3d405b" stroke-width="10">
        <circle cx="18" cy="18" r="18" stroke="none"/>
        <circle cx="18" cy="18" r="13" fill="none"/>
      </g>
      <g id="Ellipse_7" data-name="Ellipse 7" transform="translate(1520 214)" fill="#f4f1de" stroke="#3d405b" stroke-width="10">
        <circle cx="18" cy="18" r="18" stroke="none"/>
        <circle cx="18" cy="18" r="13" fill="none"/>
      </g>
      <g id="Ellipse_8" data-name="Ellipse 8" transform="translate(1329 182)" fill="#f4f1de" stroke="#3d405b" stroke-width="10">
        <circle cx="18" cy="18" r="18" stroke="none"/>
        <circle cx="18" cy="18" r="13" fill="none"/>
      </g>
      <g id="Ellipse_4" data-name="Ellipse 4" transform="translate(1122 477)" fill="#f4f1de" stroke="#3d405b" stroke-width="10">
        <circle cx="18" cy="18" r="18" stroke="none"/>
        <circle cx="18" cy="18" r="13" fill="none"/>
      </g>
      <g id="Ellipse_3" data-name="Ellipse 3" transform="translate(1593 354)" fill="#f4f1de" stroke="#3d405b" stroke-width="10">
        <circle cx="18" cy="18" r="18" stroke="none"/>
        <circle cx="18" cy="18" r="13" fill="none"/>
      </g>
      <g id="Ellipse_5" data-name="Ellipse 5" transform="translate(1740 354)" fill="#f4f1de" stroke="#3d405b" stroke-width="10">
        <circle cx="18" cy="18" r="18" stroke="none"/>
        <circle cx="18" cy="18" r="13" fill="none"/>
      </g>
      <g id="Ellipse_18" data-name="Ellipse 18" transform="translate(1776 196)" fill="#f4f1de" stroke="#3d405b" stroke-width="10">
        <circle cx="18" cy="18" r="18" stroke="none"/>
        <circle cx="18" cy="18" r="13" fill="none"/>
      </g>
      <g id="Ellipse_9" data-name="Ellipse 9" transform="translate(1672 250)" fill="#f4f1de" stroke="#3d405b" stroke-width="10">
        <circle cx="18" cy="18" r="18" stroke="none"/>
        <circle cx="18" cy="18" r="13" fill="none"/>
      </g>
      <g id="Ellipse_10" data-name="Ellipse 10" transform="translate(1108 637)" fill="#f4f1de" stroke="#3d405b" stroke-width="10">
        <circle cx="18" cy="18" r="18" stroke="none"/>
        <circle cx="18" cy="18" r="13" fill="none"/>
      </g>
      <g id="Ellipse_11" data-name="Ellipse 11" transform="translate(1291 777)" fill="#f4f1de" stroke="#3d405b" stroke-width="10">
        <circle cx="18" cy="18" r="18" stroke="none"/>
        <circle cx="18" cy="18" r="13" fill="none"/>
      </g>
      <g id="Ellipse_12" data-name="Ellipse 12" transform="translate(1291 777)" fill="#f4f1de" stroke="#3d405b" stroke-width="10">
        <circle cx="18" cy="18" r="18" stroke="none"/>
        <circle cx="18" cy="18" r="13" fill="none"/>
      </g>
      <g id="Ellipse_19" data-name="Ellipse 19" transform="translate(1785 522)" fill="#f4f1de" stroke="#3d405b" stroke-width="10">
        <circle cx="18" cy="18" r="18" stroke="none"/>
        <circle cx="18" cy="18" r="13" fill="none"/>
      </g>
      <g id="Ellipse_14" data-name="Ellipse 14" transform="translate(1427 863)" fill="#f4f1de" stroke="#3d405b" stroke-width="10">
        <circle cx="18" cy="18" r="18" stroke="none"/>
        <circle cx="18" cy="18" r="13" fill="none"/>
      </g>
      <g id="Ellipse_16" data-name="Ellipse 16" transform="translate(1722 784)" fill="#f4f1de" stroke="#3d405b" stroke-width="10">
        <circle cx="18" cy="18" r="18" stroke="none"/>
        <circle cx="18" cy="18" r="13" fill="none"/>
      </g>
      <g id="Ellipse_17" data-name="Ellipse 17" transform="translate(1511 899)" fill="#f4f1de" stroke="#3d405b" stroke-width="10">
        <circle cx="18" cy="18" r="18" stroke="none"/>
        <circle cx="18" cy="18" r="13" fill="none"/>
      </g>
      <g id="Ellipse_15" data-name="Ellipse 15" transform="translate(1127 939)" fill="#f4f1de" stroke="#3d405b" stroke-width="10">
        <circle cx="18" cy="18" r="18" stroke="none"/>
        <circle cx="18" cy="18" r="13" fill="none"/>
      </g>
      <g id="Ellipse_13" data-name="Ellipse 13" transform="translate(1081 759)" fill="#f4f1de" stroke="#3d405b" stroke-width="10">
        <circle cx="18" cy="18" r="18" stroke="none"/>
        <circle cx="18" cy="18" r="13" fill="none"/>
      </g>
      <g id="Ellipse_6" data-name="Ellipse 6" transform="translate(1520 766)" fill="#f4f1de" stroke="#3d405b" stroke-width="10">
        <circle cx="18" cy="18" r="18" stroke="none"/>
        <circle cx="18" cy="18" r="13" fill="none"/>
      </g>
    </g>
  </g>
</svg>
