<svg xmlns="http://www.w3.org/2000/svg" width="1901" height="468" viewBox="0 0 1901 468">
  <g id="Group_1" data-name="Group 1" transform="translate(-84 -113)">
    <path id="Path_1" data-name="Path 1" d="M230.934,354.97l-.274-137.99-76.38,69.54L77.9,216.98l.113,137.243H24.991L24.134,156.7l42.9-20.722L154.28,214.7l85.532-77.544,44.132,19.826-.09,197.988Zm303.245,12.764,46.5-24.931-91.6-195.865H439.765L340.079,346.06,388.038,366.7,406.6,330.6H516.8ZM433.96,277.4l30.02-59.28,27.74,59.28ZM628.52,140.116V353.829L655.413,380l26.307-26.07V273.6h33.06a79.79,79.79,0,0,0,79.8-79.8c0-44.08-35.72-80.18-79.8-80.18H654.5Zm53.2,80.284V166.82h33.06c14.44,0,26.6,12.16,26.6,26.98a26.678,26.678,0,0,1-26.6,26.6Z" transform="translate(60)" fill="#ee6352"/>
    <text id="maker" transform="translate(855 158)" fill="#f79f79" font-size="220" font-family="Jaapokki-Regular, Jaapokki"><tspan x="0" y="220">maker</tspan></text>
    <g id="Path_2" data-name="Path 2" transform="translate(291 327)" fill="#f79f79">
      <path d="M 26.50000381469727 45.5 C 15.90261745452881 45.5 7.281002998352051 36.97662734985352 7.281002998352051 26.5 C 7.281002998352051 16.02337074279785 15.90261745452881 7.5 26.50000381469727 7.5 C 36.97663116455078 7.5 45.50000381469727 16.02337074279785 45.50000381469727 26.5 C 45.50000381469727 36.97662734985352 36.97663116455078 45.5 26.50000381469727 45.5 Z" stroke="none"/>
      <path d="M 26.50000381469727 15 C 20.03813171386719 15 14.78100204467773 20.15887069702148 14.78100204467773 26.5 C 14.78100204467773 32.84113311767578 20.03813171386719 38 26.50000381469727 38 C 32.84113311767578 38 38.00000381469727 32.84113311767578 38.00000381469727 26.5 C 38.00000381469727 20.15887069702148 32.84113311767578 15 26.50000381469727 15 M 26.50000381469727 0 C 41.13554763793945 0 53.00000381469727 11.86445617675781 53.00000381469727 26.5 C 53.00000381469727 41.13554382324219 41.13554763793945 53 26.50000381469727 53 C 11.86445999145508 53 -0.2189979553222656 41.13554382324219 -0.2189979553222656 26.5 C -0.2189979553222656 11.86445617675781 11.86445999145508 0 26.50000381469727 0 Z" stroke="none" fill="#f4f1de"/>
    </g>
    <g id="Ellipse_6" data-name="Ellipse 6" transform="translate(291 130)" fill="#f79f79" stroke="#f4f1de" stroke-width="15">
      <circle cx="26.5" cy="26.5" r="26.5" stroke="none"/>
      <circle cx="26.5" cy="26.5" r="19" fill="none"/>
    </g>
    <g id="Ellipse_7" data-name="Ellipse 7" transform="translate(498 130)" fill="#f79f79" stroke="#f4f1de" stroke-width="15">
      <circle cx="26.5" cy="26.5" r="26.5" stroke="none"/>
      <circle cx="26.5" cy="26.5" r="19" fill="none"/>
    </g>
    <g id="Ellipse_8" data-name="Ellipse 8" transform="translate(688 113)" fill="#f79f79" stroke="#f4f1de" stroke-width="15">
      <circle cx="26.5" cy="26.5" r="26.5" stroke="none"/>
      <circle cx="26.5" cy="26.5" r="19" fill="none"/>
    </g>
    <g id="Path_4" data-name="Path 4" transform="translate(689 327)" fill="#f79f79">
      <path d="M 26.5000057220459 45.5 C 15.95160484313965 45.5 7.04003381729126 36.79668426513672 7.04003381729126 26.49481391906738 C 7.04003381729126 16.19855690002441 15.95160484313965 7.5 26.5000057220459 7.5 C 36.97663497924805 7.5 45.50000381469727 16.02337074279785 45.50000381469727 26.5 C 45.50000381469727 36.97662734985352 36.97663497924805 45.5 26.5000057220459 45.5 Z" stroke="none"/>
      <path d="M 26.49999809265137 15 C 20.01704025268555 15 14.54004287719727 20.26397705078125 14.54004287719727 26.49480438232422 C 14.54004287719727 32.73126220703125 20.01704025268555 38 26.49999809265137 38 C 32.84112548828125 38 38 32.84113311767578 38 26.5 C 38 20.15887069702148 32.84112548828125 15 26.49999809265137 15 M 26.49999809265137 0 C 41.13554000854492 0 52.99999618530273 11.86445617675781 52.99999618530273 26.5 C 52.99999618530273 41.13554382324219 41.13554000854492 53 26.49999809265137 53 C 11.86445617675781 53 -0.4599571228027344 41.13034820556641 -0.4599571228027344 26.49480438232422 C -0.4599571228027344 11.85926055908203 11.86445617675781 0 26.49999809265137 0 Z" stroke="none" fill="#f4f1de"/>
    </g>
    <g id="Path_3" data-name="Path 3" transform="translate(802 166)" fill="#f79f79">
      <path d="M 26.5 45.5 C 15.89324378967285 45.5 6.932372093200684 36.71135711669922 6.932372093200684 26.30848503112793 C 6.932372093200684 15.93745708465576 15.71037197113037 7.5 26.5 7.5 C 36.97663116455078 7.5 45.5 16.02337074279785 45.5 26.5 C 45.5 36.97662734985352 36.97663116455078 45.5 26.5 45.5 Z" stroke="none"/>
      <path d="M 26.49999046325684 15 C 19.95866394042969 15 14.43238067626953 20.17865371704102 14.43238067626953 26.3084774017334 C 14.43238067626953 32.53667449951172 20.07144927978516 38 26.49999046325684 38 C 32.84112167358398 38 37.99999237060547 32.84113311767578 37.99999237060547 26.5 C 37.99999237060547 20.15887069702148 32.84112167358398 15 26.49999046325684 15 M 26.49999046325684 0 C 41.13553619384766 0 52.99999237060547 11.86445617675781 52.99999237060547 26.5 C 52.99999237060547 41.13554382324219 41.13553619384766 53 26.49999046325684 53 C 11.86444854736328 53 -0.5676193237304688 40.94402313232422 -0.5676193237304688 26.3084774017334 C -0.5676193237304688 11.67293548583984 11.86444854736328 0 26.49999046325684 0 Z" stroke="none" fill="#f4f1de"/>
    </g>
    <g id="Ellipse_9" data-name="Ellipse 9" transform="translate(590 327)" fill="#f79f79" stroke="#f4f1de" stroke-width="15">
      <circle cx="26.5" cy="26.5" r="26.5" stroke="none"/>
      <circle cx="26.5" cy="26.5" r="19" fill="none"/>
    </g>
    <g id="Ellipse_5" data-name="Ellipse 5" transform="translate(399 327)" fill="#f79f79" stroke="#f4f1de" stroke-width="15">
      <circle cx="26.5" cy="26.5" r="26.5" stroke="none"/>
      <circle cx="26.5" cy="26.5" r="19" fill="none"/>
    </g>
    <g id="Ellipse_1" data-name="Ellipse 1" transform="translate(84 130)" fill="#f79f79" stroke="#f4f1de" stroke-width="15">
      <circle cx="26.5" cy="26.5" r="26.5" stroke="none"/>
      <circle cx="26.5" cy="26.5" r="19" fill="none"/>
    </g>
    <g id="Ellipse_2" data-name="Ellipse 2" transform="translate(85 327)" fill="#f79f79" stroke="#f4f1de" stroke-width="15">
      <circle cx="26.5" cy="26.5" r="26.5" stroke="none"/>
      <circle cx="26.5" cy="26.5" r="19" fill="none"/>
    </g>
  </g>
</svg>
