<svg xmlns="http://www.w3.org/2000/svg" xmlns:xlink="http://www.w3.org/1999/xlink" width="991.024" height="826.053" viewBox="0 0 991.024 826.053">
  <defs>
    <linearGradient id="linear-gradient" x1="0.5" y1="1" x2="0.5" gradientUnits="objectBoundingBox">
      <stop offset="0" stop-color="gray" stop-opacity="0.251"/>
      <stop offset="0.54" stop-color="gray" stop-opacity="0.122"/>
      <stop offset="1" stop-color="gray" stop-opacity="0.102"/>
    </linearGradient>
  </defs>
  <g id="MAP_faq" transform="translate(-0.004 0)">
    <ellipse id="Ellipse_2316" data-name="Ellipse 2316" cx="101.246" cy="9.981" rx="101.246" ry="9.981" transform="translate(603.115 806.092)" fill="#6c63ff" opacity="0.1"/>
    <path id="Path_15" data-name="Path 15" d="M531.941,43.756c44.591-16.575,98.877-2.32,145.236,18.47,145.6,65.313,251.675,189.294,335.951,315.605,30.514,45.737,59.5,93.487,70.969,144.545,23.357,103.922-37.563,211.506-141.168,249.207-35.233,12.833-73.941,18.1-112.708,21.027-68.936,5.222-140.31,3.149-208.692-16.19-48.767-13.821-94.9-36.052-139.145-60.614-123.567-68.63-236.413-157.753-317.669-266.621C129.077,401.435,98.929,347.6,98.06,292.509S133.1,182.052,192.169,172.683c24.423-3.87,50.258.158,75.461,4.3,37.109,6.111,74.721,12.537,111.4,9.872,37.9-2.774,87.189-17.582,94.1-53.762C480.449,94.251,487.408,60.311,531.941,43.756Z" transform="translate(-98.04 -31.673)" fill="#f79f79" opacity="0.1"/>
    <path id="Path_16" data-name="Path 16" d="M342.048,800.419s47.642-2.873,42.025,30.514c0,0,1.116,5.923-4.235,8.579,0,0-.079-2.478-4.887-1.639a21.517,21.517,0,0,1-5.173.257,10.79,10.79,0,0,1-6.328-2.616h0s-13.4-5.528-18.6-27.424c0,0-3.86-4.768-3.7-6l8.036,3.435s-2.744,5.8-.582,10.622c0,0,.257-10.405,1.807-10.168.306.049,4.176,1.974,4.176,1.974s-4.729,10.1-1.165,17.444c0,0-1.352-12.449,2.636-16.713l5.666,3.307s-5.528,10.435-1.777,18.944c0,0-.987-13.061,2.962-18.145l5.133,3.949s-5.193,10.286-2.024,17.355c0,0,.4-15.213,3.129-16.358,0,0,4.492,3.949,5.173,5.587,0,0-3.554,7.463-1.352,11.4,0,0,1.352-10.129,2.468-10.178,0,0,4.462,6.713,4.936,11.313,0,0-.2-6.841-3.86-11.955,0,0,4.324.74,6.851,3.544,0,0-.7-4.748-7.947-5.163,0,0-3.692-5.084-4.689-5.4,0,0,7.216-.6,11.59,1.343,0,0-3.85-4.482-12.912-2.448l-5.064-4.127s9.507-1.3,13.525.138c0,0-4.63-3.949-14.887-1.076l-5.508-3.3s8.095-1.747,12.922-1.116c0,0-5.094-2.744-14.541.227l-3.949-1.767s5.923-1.165,7.67-1.352,1.826-.661,1.826-.661a20.553,20.553,0,0,0-11.145,1.234S341.9,800.992,342.048,800.419Z" transform="translate(-101.154 -41.456)" fill="#f79f79"/>
    <ellipse id="Ellipse_2317" data-name="Ellipse 2317" cx="33.722" cy="5.696" rx="33.722" ry="5.696" transform="translate(239.986 795.272)" fill="#6c63ff" opacity="0.1"/>
    <path id="Path_17" data-name="Path 17" d="M277.4,777.67s26.861-1.619,23.693,17.207a4.571,4.571,0,0,1-2.379,4.837s-.049-1.392-2.754-.918a11.983,11.983,0,0,1-2.912.138,5.983,5.983,0,0,1-3.574-1.471h0s-7.542-3.129-10.5-15.469c0,0-2.172-2.7-2.093-3.386l4.541,1.974s-1.55,3.278-.336,5.992c0,0,.148-5.874.987-5.736.178,0,2.359,1.135,2.359,1.135s-2.665,5.7-.652,9.872c0,0-.77-7.019,1.481-9.428l3.189,1.866s-3.11,5.923-.987,10.682c0,0-.543-7.365,1.668-10.227l2.892,2.251s-2.962,5.795-1.135,9.783c0,0,.227-8.579,1.767-9.22,0,0,2.527,2.231,2.912,3.149,0,0-1.974,4.205-.76,6.427,0,0,.76-5.706,1.392-5.736,0,0,2.517,3.781,2.774,6.377a13.82,13.82,0,0,0-2.172-6.743,7.533,7.533,0,0,1,3.86,1.974s-.385-2.675-4.482-2.912c0,0-2.083-2.873-2.636-3.041,0,0,4.067-.345,6.535.75,0,0-2.172-2.527-7.285-1.382l-2.853-2.33s5.36-.731,7.631.079c0,0-2.616-2.231-8.4-.6l-3.1-1.866a28.212,28.212,0,0,1,7.276-.622s-2.863-1.55-8.194.128l-2.221-.987s3.347-.661,4.324-.76,1.036-.375,1.036-.375a11.64,11.64,0,0,0-6.288.7S277.324,778,277.4,777.67Z" transform="translate(-100.33 -41.165)" fill="#f79f79"/>
    <ellipse id="Ellipse_2318" data-name="Ellipse 2318" cx="19.013" cy="3.218" rx="19.013" ry="3.218" transform="translate(176.559 756.959)" fill="#6c63ff" opacity="0.1"/>
    <path id="Path_18" data-name="Path 18" d="M946.812,796s32.429-1.974,28.629,20.731a5.568,5.568,0,0,1-2.883,5.844s-.059-1.688-3.327-1.116a14.61,14.61,0,0,1-3.524.168,7.257,7.257,0,0,1-4.3-1.777h0s-9.122-3.761-12.666-18.668c0,0-2.626-3.248-2.517-4.077l5.469,2.33s-1.866,3.949-.395,7.236c0,0,.178-7.088,1.224-6.91.217,0,2.843,1.362,2.843,1.362s-3.218,6.91-.79,11.846c0,0-.918-8.47,1.8-11.372l3.85,2.241s-3.761,7.108-1.2,12.9c0,0-.661-8.885,1.974-12.35l3.495,2.725s-3.534,7-1.382,11.846c0,0,.286-10.346,2.142-11.135,0,0,3.05,2.7,3.515,3.8,0,0-2.419,5.084-.918,7.769,0,0,.918-6.91,1.678-6.91,0,0,3.04,4.571,3.356,7.7a16.6,16.6,0,0,0-2.616-8.134,9.171,9.171,0,0,1,4.66,2.409s-.474-3.228-5.42-3.514c0,0-2.507-3.465-3.179-3.672,0,0,4.936-.415,7.9.908,0,0-2.626-3.041-8.8-1.658l-3.445-2.814s6.466-.888,9.211.089c0,0-3.159-2.7-10.138-.731l-3.751-2.241s5.509-1.185,8.8-.76c0,0-3.465-1.866-9.872.158l-2.685-1.2s4.038-.8,5.222-.918,1.244-.454,1.244-.454a14.018,14.018,0,0,0-7.582.839S946.713,796.374,946.812,796Z" transform="translate(-108.903 -41.4)" fill="#f79f79"/>
    <ellipse id="Ellipse_2319" data-name="Ellipse 2319" cx="22.952" cy="3.88" rx="22.952" ry="3.88" transform="translate(837.287 779.319)" fill="#6c63ff" opacity="0.1"/>
    <path id="Path_19" data-name="Path 19" d="M911.045,551.2a70.431,70.431,0,0,1-1.076-10.523c0-4.235-5.755-7.986-5.755-7.986s-3.554-8.223-5.923-9.437-9.684-11.975-9.684-11.975a9.784,9.784,0,0,0-2.2-5.8,83.451,83.451,0,0,1-5.992-9.043c-.987-1.2-.494-2.053-1.974-9.072-.079-.365-.168-.721-.276-1.056a1.384,1.384,0,0,0-.158-.454,11.846,11.846,0,0,0,2.794-12.271,4.933,4.933,0,0,0-1.4-2.172c-1.668-1.362-4.334-.8-6.052-2.093l1.826-8.075c.434-1.974.661-4.472-1.066-5.538a8.967,8.967,0,0,0-2.034-.681c-2.962-.987-4.679-4.117-5.449-7.128a24.427,24.427,0,0,1-.592-8.885c.336-2.863,1.175-5.647,1.481-8.519a23.4,23.4,0,0,0-3.623-15.144,11.658,11.658,0,0,0-4.788-4.521c-1.826-.819-3.949-.987-5.657-1.974-3.672-2.34-3.485-7.9-6.417-11.086s-8.125-3.179-12.4-2.083-8.529,2.962-12.912,2.5c-2.823-.316-5.469-1.6-8.3-1.9a8.744,8.744,0,0,0-2.429.109V396.3c-2.093.375-4.018,1.54-4.511,3.524a5.378,5.378,0,0,0-.138,1.441c0,1.155.277,2.359.3,3.465a3.3,3.3,0,0,1-.8,2.438c-.563.6-1.392.918-1.974,1.54a2.468,2.468,0,0,0-.721,1.816c0,1.757,2.191,3.307,3.662,4.018h.059c-.395.395-.79.81-1.155,1.234a26,26,0,0,0-6.535,17.266A26.358,26.358,0,0,0,815.2,457.114l-.207.642a36.832,36.832,0,0,1-1.451,3.732,7.394,7.394,0,0,0-6.2.691c-2.823,1.974-8.342,1.816-9.813,1.451s-16.782-2.3-18.016-1.816-3.672-1.688-5.262,1.214-2.33,4.472-3.949,5.2-4.413,3.021-4.038,3.5-4.047,3.386-4.047,3.386-3.8,3.949-6,4.472-6.861,3.514-6.861,3.514l-5.4,4.225s-4.038.612-2.813-2.172-2.211-6.288-2.211-6.288-6.861-13.91-6.861-16.782-5.637-15.124-5.637-15.124l-.691-.069-.316-.9c-1.037-2.912-2.379-6.486-3.406-8.579-1.974-4-3.189-4.413-3.189-4.413s-23.772-17.848-39.211-12.409,28.184,21.649,32.1,23.347c1.372.592,2.359,2.508,3.051,4.748a20.316,20.316,0,0,0-8.441,7.592s9.438,20.918,9.684,26.121,6.5,19.744,6.5,19.744,2.33,10.77,14.946,10.158c0,0,17.4,3.2,21.2,0s7.226-5.706,9.072-6.071a7.157,7.157,0,0,0,3.425-2.419s-5.755,36.279-8.579,39.428-27.77,43.881-18.816,51.166a178.883,178.883,0,0,0,22.419,14.808c.76.375,3.041-3.426,6.3-6.121v2.1c.059,14.492,1.974,36.526,4.62,41.462,3.949,7.256,2.33,21.284,2.33,21.284a16.784,16.784,0,0,0,6.624,1.589c.118.474.257.987.385,1.481,2.162,8.164,5.667,20.79,7.453,24.147,2.7,5.084,4.65,21.175,4.65,21.175s1.6,15.795.987,18.016c-.237.839.8,7.414,2.429,15.8h0c-.987,11.343-2.863,33.209-3.179,41.117h0v.573a2.4,2.4,0,0,1,0,.267v.484h0a7.384,7.384,0,0,0,.059,1.491,4.836,4.836,0,0,1-.168,2.251,39.294,39.294,0,0,1-2.656,6.338,30.209,30.209,0,0,0-1.184,3.06c-.987.434-2.192,1.491-2.863,4.067-1.224,4.719-3.06,17.769-3.06,17.769s-.74,7.986-2.2,9.8-2.962,13.179,7.473,14.63,14.946-5.528,14.946-5.528l-.365-31.669v-.059a4.8,4.8,0,0,0,.543-.859v-.079c.069-.148.148-.306.217-.484l.089-.237.158-.385a.558.558,0,0,1,0-.138,20.929,20.929,0,0,0,.888-9.428V801.8a3.747,3.747,0,0,1,.059-.652v-.118l.059-.385v-.168a.729.729,0,0,1,.079-.395.442.442,0,0,1,0-.1c.1-.454.217-.987.346-1.422v-.109l.148-.474h0c.148-.5.316-.987.494-1.52v-.1a1.381,1.381,0,0,1,.168-.464v-.059c.178-.484.365-.987.543-1.4l.049-.128.158-.395.049-.119.375-.879h0l2.892,8.934s1.6,6.654.74,8.223.987,8.1,2.2,8.223l-1.135,8.223a125.781,125.781,0,0,0-1.1,13.673c-.079.523-.158.987-.217,1.3-.79,4.215,1.106,10.751,1.106,10.751,9.674,11.442,21.2.888,21.2.888s1.343-6.051,0-7.256-.74-5.568-.74-5.568.612-10.77.731-18.628-6.427-14.808-6.427-14.808l-.365.326c-1.194-3.08-2.557-6.673-2.27-8.283.494-2.784-1.352-32.173-1.352-32.173a174.306,174.306,0,0,0,.434-23.693h0c.158-1.333.306-2.646.454-3.949.74-6.318,1.343-11.718,1.579-14.551h0v-.336c.059-.76.089-1.3.079-1.56,0-.987,0-2.113.1-3.347.227-3.4.76-7.177.76-7.177l2.567-15.607s1.974-7.621,4.788-11.846l.336-.533h0c.109-.188.217-.395.336-.612l.049-.089c.109-.207.227-.424.336-.652l.049-.089c.395-.78.819-1.678,1.264-2.665,0-.079.069-.148.1-.227l.336-.75a.774.774,0,0,1,.128-.3c.049-.1.207-.5.316-.75a2.865,2.865,0,0,0,.128-.306c.128-.3.267-.6.395-.918l.188-.454c.089-.227.188-.454.286-.681l.237-.6c.069-.148.128-.3.188-.444l.267-.681c0-.1.089-.207.128-.306.7-1.747,1.372-3.475,1.974-5.044h0c.188-.494.375-.987.543-1.422,6.279.385,10.543.73,10.543.73s1.974-14.146,1.343-23.456c-.415-6.357.77-14.354,1.55-18.757.089-.484.168-.918.247-1.313l.168.138c3.07,2.419,5.272-5.568,5.272-5.568s-.829-7.453-1.974-16.486l-.118-.9a46.386,46.386,0,0,0,5.36.819s.987-.089,2.34-.257a64.771,64.771,0,0,0,11.787,5.331L889.84,595.4a48.985,48.985,0,0,1,4.294-7.137c1.974-2.419,8.944-10.158,8.825-11.609s2.33-9.8,4.778-13.554S911.163,551.806,911.045,551.2Zm-27.207,9.191c-2.576,1.086-5.025,7.137-5.143,8.954s-2.823,9.793-5.637,10.76c-2.6.889-7.552,5.449-8.342,6.18-.81.069-1.728.178-2.685.336-1.076-7.631-2.142-13.949-2.823-15.222-1.974-3.633,2.162-15.242,2.162-15.242s.4-11.728,2.962-14.512,1.974-9.8,1.974-9.8.612-2.9.859-4.225,3.643,0,3.672,0h0s6.614,3.623,7.6,9.062,8.214,14.877,8.214,14.877-1.106,3.268,0,4.936S886.414,559.308,883.838,560.394Z" transform="translate(-105.446 -36.264)" fill="url(#linear-gradient)"/>
    <path id="Path_20" data-name="Path 20" d="M707,457.707a19.744,19.744,0,0,1,19.744-9.3v14.127h-8.579l-6.713-1.7Z" transform="translate(-105.84 -36.946)" fill="#4c4981"/>
    <path id="Path_21" data-name="Path 21" d="M707,457.707a19.744,19.744,0,0,1,19.744-9.3v14.127h-8.579l-6.713-1.7Z" transform="translate(-105.84 -36.946)" opacity="0.1"/>
    <path id="Path_22" data-name="Path 22" d="M727,451.8l-10.514,7.364s-.089-1.471-.355-3.485c-.523-3.811-1.7-9.526-4.235-10.632-3.86-1.7-46.832-17.868-31.59-23.308s38.629,12.389,38.629,12.389,1.2.415,3.129,4.393c.987,2.093,2.34,5.657,3.357,8.569C726.36,449.714,727,451.8,727,451.8Z" transform="translate(-105.456 -36.593)" fill="#ae6e79"/>
    <path id="Path_23" data-name="Path 23" d="M714.653,432.073l1.195-.563,3.356,3.83-2.744,5.854-4.679-1.876,1.086-4.679Z" transform="translate(-9.116 -5.527)" fill="#4c4981"/>
    <path id="Path_24" data-name="Path 24" d="M796.484,811s-3.021-.355-4.225,4.354-3.021,17.769-3.021,17.769-.721,7.967-2.172,9.783-2.893,13.159,7.364,14.6,14.729-5.518,14.729-5.518l-.365-31.659Z" transform="translate(-106.852 -41.592)" fill="#444053"/>
    <path id="Path_25" data-name="Path 25" d="M832.675,812.44s6.456,6.91,6.338,14.749-.731,18.589-.731,18.589-.592,4.354.731,5.558,0,7.246,0,7.246-11.353,10.533-20.889-.888c0,0-1.856-6.525-1.086-10.731s2.922-23.11,2.922-23.11Z" transform="translate(-107.246 -41.611)" fill="#444053"/>
    <path id="Path_26" data-name="Path 26" d="M848.3,666.124s-6.515,18.224-9.3,22.449-4.7,11.846-4.7,11.846l-2.537,15.568a86.885,86.885,0,0,0-.849,10.5c.118,3.5-6.279,54.562-6.279,54.562L814.5,793.975s-4.462,9.052-3.742,12.833-.484,9.783-1.974,11.59c0,0-.237,11.846-.6,14.482s1.333,10.148,0,11.471-19.073.731-19.556-1.451,2.172-12.676,2.172-12.676l1.57-10.138s3.139-5.548,2.419-7.365,1.323-6.032,1.441-6.4,3.386-6.279,2.784-8.569,3.8-51,3.8-51l12.429-87.278Z" transform="translate(-106.884 -39.652)" fill="#ae6e79"/>
    <path id="Path_27" data-name="Path 27" d="M848.3,666.124s-.987,2.744-2.34,6.348c-2.152,5.686-5.252,13.515-6.96,16.1-2.774,4.225-4.709,11.846-4.709,11.846L831.76,716a87.542,87.542,0,0,0-.839,10.5c0,1.382-.928,10.2-2.112,20.356-1.826,15.529-4.166,34.206-4.166,34.206L814.5,793.985s-.513.987-1.155,2.547c-1.273,2.962-3.07,7.769-2.586,10.247.721,3.741-.484,9.773-1.974,11.589,0,0-.247,11.846-.6,14.482s1.333,10.138,0,11.471-19.073.731-19.556-1.441,2.172-12.676,2.172-12.676l1.57-10.148s3.139-5.548,2.409-7.365,1.333-6.032,1.451-6.4,3.386-6.279,2.784-8.569c-.464-1.747,1.974-30.346,3.11-43.91.385-4.265.632-7.039.632-7.039l10.691-75.086.869-6.052.869-6.14Z" transform="translate(-106.884 -39.652)" opacity="0.1"/>
    <path id="Path_28" data-name="Path 28" d="M837.4,847.756c.109,1.333-17.029,3.268-19.477,1.816s0-19.438,0-19.438l1.116-8.2c-1.194-.128-3.011-6.644-2.172-8.214s-.721-8.2-.721-8.2l-2.843-8.885-1.737-5.44c-2.823-6.229-6.91-24-9.447-37.266-1.6-8.332-2.616-14.9-2.389-15.736.6-2.172-.987-17.987-.987-17.987s-1.974-16.062-4.581-21.126c-1.767-3.357-5.212-15.963-7.345-24.1-1.086-4.176-1.836-7.177-1.836-7.177s18.243-1.53,29.31-2.063c5.084-.247,8.658-.277,8.243.138s-.523,2.626-.5,5.825c.049,8.282,1.2,22.853,2.429,26.773,1.688,5.43,3.376,21.718,2.656,23.3s-.484,12.073-.484,12.073a54.306,54.306,0,0,1,2.132,13.1,177.079,177.079,0,0,1-.415,23.584s1.807,29.339,1.323,32.113,3.86,11.471,3.86,13.159,1.2,13.159,1.2,13.159S837.321,846.433,837.4,847.756Z" transform="translate(-106.838 -39.73)" fill="#ae6e79"/>
    <path id="Path_29" data-name="Path 29" d="M847.143,492.257l-2.073,2.241-1.352,1.461-7.9,8.49-20.405,2.3-10.859-2.9-2.685-.721s0-5.449.484-11.985c.691-8.381,2.34-18.559,6.279-21.333a15.687,15.687,0,0,0,4.59-5.815,32.76,32.76,0,0,0,1.974-4.877c.079-.217.138-.425.207-.642a54.521,54.521,0,0,0,1.915-8.954s2.606-1.441,6.229-3.12c9.447-4.413,25.766-10.5,20.089,3.12a53.292,53.292,0,0,0-2.132,6.121c-.089.306-.168.612-.237.908-1.9,7.582-.642,12.182.77,14.719h0a9.2,9.2,0,0,0,.819,1.254,6.59,6.59,0,0,0,1.372,1.392l2.35,14.916.2,1.234Z" transform="translate(-107.055 -36.855)" fill="#ae6e79"/>
    <path id="Path_30" data-name="Path 30" d="M843.821,450.261c-1.076,2.586.523-2.113,0,0-4.3,3.06-14.443,11.777-20.139,11.777-3.85,0-5.005-.7-8.3-2.192a53.854,53.854,0,0,0,2.122-9.586S851.669,431.426,843.821,450.261Z" transform="translate(-107.228 -36.865)" opacity="0.1"/>
    <path id="Path_31" data-name="Path 31" d="M852.317,433.958a26.338,26.338,0,0,1-23.564,26.171c-.908.089-1.826.148-2.754.148a26.319,26.319,0,1,1,26.318-26.319Z" transform="translate(-107.026 -36.426)" fill="#ae6e79"/>
    <path id="Path_32" data-name="Path 32" d="M855.945,551.635l-3.751,9.783s-3.051.128-7.809.276c-16.062.513-51.452,1.165-53.032-2.962a10.5,10.5,0,0,1-.553-3.248c-.208-6.288,2.724-15.943,2.724-15.943s1.688-19.319,1.688-20.158-1.451-14.374-1.451-14.374l2.9-10.859,8.085-5.676s3.623,5.558,5.795,6.032,5.074,3.149,5.074,3.149,7.118,4.344,9.418,1.925,20.159-13.041,20.159-13.041l9.418,10.385Z" transform="translate(-106.913 -37.437)" opacity="0.1"/>
    <path id="Path_33" data-name="Path 33" d="M855.945,553.155l-3.751,9.773s-3.05.138-7.809.286h-.464c-2.053.069-4.4.138-6.91.188-12.764.3-30.346.375-39.537-.987-3.455-.494-5.716-1.2-6.091-2.172a8.72,8.72,0,0,1-.434-1.8c-.059-.454-.1-.987-.118-1.451-.207-6.288,2.725-15.943,2.725-15.943s1.688-19.319,1.688-20.158-1.451-14.374-1.451-14.374l2.9-10.859,5.558-3.89,2.527-1.777a37.891,37.891,0,0,0,2.774,3.653,7.383,7.383,0,0,0,3.021,2.379c2.182.484,5.074,3.149,5.074,3.149s7.118,4.344,9.418,1.925c1.747-1.846,12.606-8.49,17.621-11.521,1.54-.938,2.537-1.52,2.537-1.52l1.263,1.4,8.154,8.983Z" transform="translate(-106.913 -37.456)" fill="#fff"/>
    <path id="Path_34" data-name="Path 34" d="M727.509,452.139,717,459.5s-.089-1.471-.355-3.485c5.193-2.192,8.352-7.039,9.26-8.589C726.867,450.056,727.509,452.139,727.509,452.139Z" transform="translate(-105.963 -36.936)" opacity="0.1"/>
    <path id="Path_35" data-name="Path 35" d="M764.325,477.147l-2.29-.612s-3.751,3.949-5.923,4.472-6.752,3.495-6.752,3.495l-5.321,4.225s-3.949.612-2.774-2.172-2.172-6.278-2.172-6.278-6.762-13.88-6.762-16.782-5.587-15.084-5.587-15.084-7.009,13.643-19.8,9.3c0,0,9.3,20.879,9.536,26.072s6.4,19.675,6.4,19.675,2.3,10.751,14.729,10.148c0,0,17.148,3.189,20.889,0s7.118-5.7,8.885-6.061a7.327,7.327,0,0,0,3.376-2.409V490.78Z" transform="translate(-105.839 -36.948)" fill="#ee6352"/>
    <path id="Path_36" data-name="Path 36" d="M743.3,491.33s3.021,11.234,1.086,12.439Z" transform="translate(-106.304 -37.498)" opacity="0.1"/>
    <path id="Path_37" data-name="Path 37" d="M844.385,564.059c-16.062.513-51.452,1.155-53.032-2.961a10.5,10.5,0,0,1-.553-3.248l52.469,2.764Z" transform="translate(-106.913 -38.35)" opacity="0.1"/>
    <path id="Path_38" data-name="Path 38" d="M848.259,666.124s-.987,2.744-2.34,6.348c-6.664-.4-15.489-.829-23.87-.888-2.962,0-5.864,0-8.608.1-5.825.178-10.859.652-14.068,1.56a37.31,37.31,0,0,1-12.537,1.619c-1.086-4.176-1.836-7.177-1.836-7.177s18.243-1.53,29.31-2.063l.869-6.14Z" transform="translate(-106.838 -39.652)" opacity="0.1"/>
    <path id="Path_39" data-name="Path 39" d="M862.231,620.652,860.178,625s-.286,1.293-.652,3.347c-.77,4.423-1.974,12.4-1.52,18.757.6,9.3-1.333,23.416-1.333,23.416s-44.424-3.742-57.455,0-19.448,0-19.448,0,1.579-14-2.29-21.244c-2.636-4.936-4.492-26.97-4.551-41.462,0-6.683.336-11.748,1.175-12.774,2.656-3.258,14-35.855,14-35.855l2.586.138,6.91.365,39.29,2.073,6.17.326.652,1.974Z" transform="translate(-106.684 -38.367)" fill="#444053"/>
    <path id="Path_40" data-name="Path 40" d="M882.965,606.547l.365,3.87s-19.458-6.338-18.47-14.127,0-6.91,0-6.91L880.5,590.7Z" transform="translate(-107.861 -38.753)" fill="#4c4981"/>
    <path id="Path_41" data-name="Path 41" d="M882.965,606.547l.365,3.87s-19.458-6.338-18.47-14.127,0-6.91,0-6.91L880.5,590.7Z" transform="translate(-107.861 -38.753)" opacity="0.1"/>
    <path id="Path_42" data-name="Path 42" d="M756.412,494.449a17.335,17.335,0,0,0,6.851,3.564,4.461,4.461,0,0,1-1.974-.987c-1.392-.987-2.715-2.063-4.057-3.11-1.086-.849-2.438-2.261-3.771-2.606A20.794,20.794,0,0,0,756.412,494.449Z" transform="translate(-106.435 -37.498)" opacity="0.1"/>
    <path id="Path_43" data-name="Path 43" d="M756.68,499.577a8.715,8.715,0,0,1,1.5,2.379,14.383,14.383,0,0,1-.109,7.473l-3.12-7.522c-.543-1.283-1.086-2.567-1.737-3.791-.286-.523-2.083-2.7-1.876-3.159C751.893,493.674,756.1,498.857,756.68,499.577Z" transform="translate(-106.407 -37.542)" opacity="0.1"/>
    <path id="Path_44" data-name="Path 44" d="M844.758,541.806a10.05,10.05,0,0,0,5.676-2.656c-3.208.4-6.249,1.669-9.408,2.33a13.979,13.979,0,0,1-8.766-.81C835.893,542.447,840.888,542.506,844.758,541.806Z" transform="translate(-107.444 -38.11)" opacity="0.1"/>
    <path id="Path_45" data-name="Path 45" d="M835.526,519.326a2.2,2.2,0,0,1-1.629-.4q-3.613-2.073-7.128-4.324c-2.28-1.471-5.035-2.962-6.979-4.818C824.578,514.1,829.04,517.756,835.526,519.326Z" transform="translate(-107.284 -37.734)" opacity="0.1"/>
    <path id="Path_46" data-name="Path 46" d="M842.425,545.359a15.024,15.024,0,0,0,3.771-.306,5.054,5.054,0,0,0,3.1-2.034,1.777,1.777,0,0,0-1.313.207,22.153,22.153,0,0,1-12.123,1.451C837.824,545.517,840.342,545.349,842.425,545.359Z" transform="translate(-107.49 -38.16)" opacity="0.1"/>
    <path id="Path_47" data-name="Path 47" d="M818.951,602.156a39.6,39.6,0,0,1-7.71,1.51,46.583,46.583,0,0,1-6.1-.118l-9.872-.622-4.936-.316c-.582,0-2.962,0-1.787-1.175.592-.573,3.89-.207,4.738-.237q2.458-.079,4.936-.089c3.268,0,6.545,0,9.813.2C811.7,601.485,815.3,601.761,818.951,602.156Z" transform="translate(-106.88 -38.904)" opacity="0.1"/>
    <path id="Path_48" data-name="Path 48" d="M807.467,607.108c-1.678-.069-3.84.928-5.568,1.145a37.057,37.057,0,0,1-5.824.227,32.48,32.48,0,0,1-11.224-2.29C792.382,606.575,799.934,606.8,807.467,607.108Z" transform="translate(-106.837 -38.969)" opacity="0.1"/>
    <path id="Path_49" data-name="Path 49" d="M786.3,612.356a16.172,16.172,0,0,1,2.152.592c4.166,1.185,8.6.138,12.833-.908-1.056,1.589-2.962,2.271-4.867,2.7a22.569,22.569,0,0,1-9.477.346c-.987-.2-3.465-.553-3.949-1.579C782.179,612,785.367,612.208,786.3,612.356Z" transform="translate(-106.811 -39.044)" opacity="0.1"/>
    <path id="Path_50" data-name="Path 50" d="M809.919,620.222a32.2,32.2,0,0,1,3.692.987c4.689,1.165,9.556-.434,14.265-1.51a66.4,66.4,0,0,1,17.266-1.6c-1.037,0-2.685.908-3.7,1.214-1.333.4-2.685.78-4.038,1.115-2.656.652-5.351,1.185-8.065,1.57a82.909,82.909,0,0,1-16.555.721c-2.527-.138-6.91.118-9.072-1.155A10,10,0,0,1,809.919,620.222Z" transform="translate(-107.078 -39.121)" opacity="0.1"/>
    <path id="Path_51" data-name="Path 51" d="M811.292,469.357s.237,11.116-1.57,16.19c-.573,1.58-1.461,4.492-2.429,7.759-1.056,3.623-2.211,7.68-3.1,10.859s-1.481,5.311-1.481,5.311-4.077,33.209-5.133,49.034a3.87,3.87,0,0,1-.059.829c-.059.889-.158,1.816-.306,2.774-2.349,15.716-15.9,39.952-20.455,41.887a13.542,13.542,0,0,0-3.83,2.636c0-6.683.336-11.748,1.175-12.774,2.656-3.258,14-35.855,14-35.855l2.586.138c-.059-.454-.1-.987-.118-1.451-.207-6.288,2.725-15.943,2.725-15.943s1.688-19.319,1.688-20.159-1.451-14.373-1.451-14.373l2.9-10.859,5.558-3.89c.691-8.381,2.34-18.559,6.279-21.333a15.686,15.686,0,0,0,4.59-5.815c.78.109-.642-.582-.642-.582Z" transform="translate(-106.684 -37.145)" opacity="0.1"/>
    <path id="Path_52" data-name="Path 52" d="M813.024,463.115a7.187,7.187,0,0,0-6.111.691c-2.784,1.974-8.214,1.807-9.665,1.451s-16.535-2.3-17.769-1.816-3.623-1.688-5.193,1.214-2.29,4.462-3.86,5.183-4.353,3.021-3.949,3.5-3.949,3.376-3.949,3.376l8.806,28.629s-5.676,36.21-8.45,39.349-27.4,43.821-18.589,51.067a175.423,175.423,0,0,0,22.093,14.808c.987.484,4.462-6.032,9.289-8.085s19.8-29.221,20.731-44.67,5.193-49.853,5.193-49.853,5.193-18.836,7-23.91,1.57-16.19,1.57-16.19Z" transform="translate(-106.293 -37.132)" fill="#ee6352"/>
    <path id="Path_53" data-name="Path 53" d="M863.057,619.542,861,623.885s-.286,1.293-.651,3.347a1.848,1.848,0,0,1-.987-.444c-3.021-2.419-20.731-20.642-21.61-36.822-.622-11.935-.326-22.222-.128-26.8.059-1.441.119-2.31.119-2.5h0S851.507,544,849.937,538.1s-5.192-37.513-5.192-37.513l-.533-4.146-.918-7.009L841.1,472.47l2.271.533a6.582,6.582,0,0,0,1.372,1.392l2.349,14.916,8.154,8.983,1.333,54.69-3.751,9.773s-3.05.138-7.808.286h-.464Z" transform="translate(-107.509 -37.256)" opacity="0.1"/>
    <path id="Path_54" data-name="Path 54" d="M870.675,529.254s-3.376-1.333-3.613,0-.849,4.215-.849,4.215.6,7.009-1.974,9.783-2.962,14.482-2.962,14.482-4.067,11.59-2.142,15.213c.7,1.313,1.787,7.9,2.873,15.8.691,4.936,1.372,10.356,1.974,15.311,1.1,9,1.915,16.456,1.915,16.456s-2.182,7.967-5.2,5.548-20.731-20.642-21.6-36.822c-.592-11.363-.355-21.235-.158-26.1.079-2.063.158-3.228.158-3.228s13.761-16.664,12.192-22.577-5.193-37.513-5.193-37.513l-.632-4.887-.681-5.252-.158-1.155-2.182-16.782h0c.385.089,13.929,3.149,15.716,4.936s12.833,4.344,12.833,4.344a9.655,9.655,0,0,1,6.851,7.029c.109.336.187.691.266,1.056,1.451,7.009.987,7.848,1.974,9.063S870.675,529.254,870.675,529.254Z" transform="translate(-107.526 -37.247)" fill="#ee6352"/>
    <path id="Path_55" data-name="Path 55" d="M864.233,605.561c-4.936-.987-12.261-3.268-12.093-8.3.148-4.709,5.815-6.407,10.109-7.009C862.94,595.166,863.621,600.606,864.233,605.561Z" transform="translate(-107.698 -38.765)" opacity="0.1"/>
    <path id="Path_56" data-name="Path 56" d="M879.554,603.04c-.2.424-.987.79-2.113,1.115a56.941,56.941,0,0,1-8.026,1.313s-16.782-1.333-16.545-8.944c.178-5.459,7.759-6.91,12.014-7.236a27.651,27.651,0,0,1,2.833-.118S880.274,601.48,879.554,603.04Z" transform="translate(-107.708 -38.751)" fill="#ae6e79"/>
    <path id="Path_57" data-name="Path 57" d="M879.7,603.04c-.2.424-.987.79-2.113,1.115-4.373-5.854-10.474-13.367-13.465-14.028l.908-.839a27.65,27.65,0,0,1,2.833-.118S880.418,601.48,879.7,603.04Z" transform="translate(-107.852 -38.751)" opacity="0.1"/>
    <path id="Path_58" data-name="Path 58" d="M875.482,497.69l4.936.731a85.761,85.761,0,0,0,5.923,9.052,9.873,9.873,0,0,1,2.172,5.795s7.246,10.741,9.536,11.945,5.795,9.418,5.795,9.418,5.676,3.741,5.676,7.967a70.962,70.962,0,0,0,1.086,10.5c.128.6-.839,8.1-3.258,11.846s-4.837,12.024-4.709,13.5-6.762,9.181-8.687,11.59a49.056,49.056,0,0,0-4.225,7.127l-6.4,12.073s-13.525-19.922-18.47-21.008c0,0,5.548-5.311,8.322-6.279s5.439-8.885,5.558-10.741,2.537-7.848,5.064-8.885,3.87-2.172,2.784-3.87,0-4.936,0-4.936-7.127-9.418-8.095-14.808-7.483-9.053-7.483-9.053l-3.741-9.181Z" transform="translate(-107.861 -37.58)" fill="#ee6352"/>
    <path id="Path_59" data-name="Path 59" d="M893.751,543.292A15.667,15.667,0,0,1,903.5,539.6c-2.29.395-4.7.9-6.377,2.5a15.055,15.055,0,0,0-1.767,2.251c-.573.819-5.232,6.743-5.923,5.8C888.272,548.781,892.814,544.092,893.751,543.292Z" transform="translate(-108.174 -38.116)" opacity="0.1"/>
    <path id="Path_60" data-name="Path 60" d="M882.73,537.3a4.175,4.175,0,0,0,3.445-2.438,13.674,13.674,0,0,0,1.076-4.285,63.929,63.929,0,0,1,1.491-7.335,3.4,3.4,0,0,0-.207-2.962,10.019,10.019,0,0,0-1.066-2.192c-.888.987-1.145,3.287-1.51,4.61-.454,1.639-.869,3.287-1.264,4.936C884.487,528.426,882.848,537.3,882.73,537.3Z" transform="translate(-108.09 -37.841)" opacity="0.1"/>
    <path id="Path_61" data-name="Path 61" d="M877.474,487.149a10.162,10.162,0,0,1-1.668,1.718c-1.974,1.57-4.59,2.892-4.837,5.37a5.774,5.774,0,0,1-.3,2.379c-.632,1.086-2.182.987-3.416.78a5.923,5.923,0,0,1-2.892-1.066c-1.293-1.106-1.412-3.08-2.4-4.472a6.091,6.091,0,0,0-4.936-2.182c-1.846-.059-3.682.355-5.528.434a15.19,15.19,0,0,1-3.544-.237,11.233,11.233,0,0,1-1.145-.237,14.745,14.745,0,0,1-2.409-.819,10.566,10.566,0,0,1-1.174-.553,15.587,15.587,0,0,1-3.406-2.369c-1.807-1.658-3.307-3.949-3.159-6.407.089-1.51.77-2.9.987-4.393.74-4.265-2.093-8.292-5.163-11.343-1.224-1.214-2.527-2.389-3.751-3.623a18.056,18.056,0,0,1-4.413-6.3,18.754,18.754,0,0,1-.79-7.9,54.518,54.518,0,0,0,.227-8.115c-.908-9.6-9.1-16.95-17.3-20.948l-.365-.188a26.309,26.309,0,1,1,35.391,38.5c-.089.306-.168.612-.237.908-1.9,7.582-.642,12.182.77,14.719h0c.385.089,13.929,3.149,15.716,4.936s12.833,4.344,12.833,4.344a9.654,9.654,0,0,1,6.9,7.058Z" transform="translate(-107.109 -36.426)" opacity="0.1"/>
    <path id="Path_62" data-name="Path 62" d="M804.331,409.571c.543-.622,1.362-.938,1.915-1.54,1.708-1.856,0-4.887.622-7.335.671-2.715,4.008-3.9,6.792-3.613s5.39,1.57,8.174,1.885c4.324.484,8.51-1.392,12.725-2.488s9.309-1.155,12.211,2.073,2.7,8.727,6.318,11.066c1.668,1.076,3.771,1.194,5.578,1.974a11.459,11.459,0,0,1,4.719,4.511,23.633,23.633,0,0,1,3.574,15.114c-.306,2.863-1.135,5.647-1.471,8.51a24.78,24.78,0,0,0,.592,8.885c.76,2.962,2.409,6.16,5.361,7.108a9.038,9.038,0,0,1,1.974.681c1.708,1.066,1.481,3.574,1.046,5.528l-1.757,8.1c1.688,1.283,4.314.731,5.923,2.083a4.938,4.938,0,0,1,1.382,2.172,11.846,11.846,0,0,1-3.544,12.972c-1.974,1.57-4.59,2.892-4.837,5.36a5.571,5.571,0,0,1-.3,2.379c-.622,1.086-2.182.987-3.416.78a5.923,5.923,0,0,1-2.883-1.066c-1.3-1.106-1.412-3.08-2.4-4.472a6.111,6.111,0,0,0-4.936-2.182c-1.856-.059-3.682.355-5.538.444a16.367,16.367,0,0,1-11.639-4.205c-1.816-1.668-3.307-3.949-3.169-6.417.089-1.5.77-2.9.987-4.393.731-4.255-2.093-8.292-5.163-11.343s-6.674-5.864-8.174-9.921c-1.876-5.025-.059-10.632-.563-15.963-.908-9.605-9.092-16.95-17.3-20.958C805.318,414.369,802.208,411.99,804.331,409.571Z" transform="translate(-107.077 -36.275)" fill="#444053"/>
    <path id="Path_63" data-name="Path 63" d="M868.892,492.492c-1.3-1.116-1.412-3.08-2.4-4.472a6.131,6.131,0,0,0-4.936-2.191c-1.856-.059-3.692.355-5.538.444a16.319,16.319,0,0,1-11.679-4.215c-1.816-1.658-3.3-3.949-3.159-6.407.089-1.51.77-2.912.987-4.393.74-4.265-2.093-8.3-5.163-11.353s-6.664-5.864-8.174-9.921c-1.866-5.015,0-10.622-.553-15.963-.918-9.605-9.1-16.95-17.3-20.958-1.915-.938-5.025-3.317-2.9-5.736.533-.622,1.352-.938,1.905-1.54,1.708-1.846,0-4.887.632-7.325a4.028,4.028,0,0,1,.622-1.352c-2.063.385-3.949,1.55-4.452,3.524-.6,2.448,1.086,5.479-.622,7.335-.553.6-1.372.918-1.915,1.53-2.123,2.419.987,4.808,2.9,5.736,8.2,4.008,16.387,11.363,17.3,20.958.5,5.341-1.313,10.948.563,15.973,1.5,4.047,5.1,6.91,8.174,9.921s5.923,7.078,5.163,11.343a37.828,37.828,0,0,0-.987,4.393c-.138,2.458,1.352,4.748,3.169,6.407a16.279,16.279,0,0,0,11.669,4.215c1.856-.089,3.682-.494,5.538-.444a6.14,6.14,0,0,1,4.936,2.192c.987,1.392,1.1,3.366,2.4,4.472a5.921,5.921,0,0,0,2.882,1.056c1.234.227,2.794.306,3.416-.77a2.666,2.666,0,0,0,.276-1.422A5.677,5.677,0,0,1,868.892,492.492Z" transform="translate(-107.076 -36.291)" opacity="0.1"/>
    <path id="Path_64" data-name="Path 64" d="M722.007,429.142H653.723V361.855h68.333Zm-.987-101.454h-66.31c0-104.563,99.391-98.453,99.391-164.6,0-36.437-29.823-65.629-66.26-65.629s-66.25,31.472-66.25,66.665H555.33A132.284,132.284,0,0,1,687.841,31.61c73.19,0,132.511,58.392,132.511,131.474,0,82.717-99.381,92.135-99.381,164.6Z" transform="translate(-103.897 -31.61)" fill="#f79f79"/>
    <path id="Path_65" data-name="Path 65" d="M378.623,412.668H361.012V395.274h17.612Zm-.267-26.161H361.278c0-26.95,25.618-25.381,25.618-42.449a17,17,0,0,0-17.078-16.93A17.444,17.444,0,0,0,352.778,344.3H335.7a34.164,34.164,0,1,1,68.328-.267c-.054,21.323-25.672,23.752-25.672,42.43Z" transform="translate(-101.084 -35.176)" fill="#3d405b" opacity="0.1"/>
    <path id="Path_66" data-name="Path 66" d="M513.7,535.078H496.091V517.734H513.7Zm-.257-26.151H496.367c0-26.96,25.618-25.381,25.618-42.449a16.99,16.99,0,0,0-17.079-16.92,17.444,17.444,0,0,0-17.128,17.2H470.7a34.164,34.164,0,1,1,68.328-.267C539.053,487.812,513.445,490.25,513.445,508.928Z" transform="translate(-102.813 -36.744)" fill="#3d405b" opacity="0.1"/>
    <path id="Path_67" data-name="Path 67" d="M596,318.745H583.232V306.2H596Zm-.187-18.964H583.429c0-19.527,18.569-18.391,18.569-30.751a12.32,12.32,0,0,0-12.38-12.261,12.636,12.636,0,0,0-12.379,12.458H564.86a24.759,24.759,0,1,1,49.517-.2C614.358,284.48,595.808,286.247,595.808,299.781Z" transform="translate(-104.019 -34.335)" fill="#3d405b" opacity="0.1"/>
    <path id="Path_68" data-name="Path 68" d="M817.011,337.11h-7.216V330h7.216ZM816.9,326.4h-7.039c0-11.037,10.494-10.4,10.494-17.384a6.91,6.91,0,0,0-6.989-6.91,7.147,7.147,0,0,0-7,7.039h-7a14,14,0,0,1,27.987-.109C827.4,317.711,816.9,318.748,816.9,326.4Z" transform="translate(-107.022 -34.989)" fill="#3d405b" opacity="0.1"/>
    <path id="Path_69" data-name="Path 69" d="M928.772,664.58h-7.216v-7.108h7.216Zm-.109-10.711h-7c0-11.047,10.5-10.4,10.5-17.384a6.96,6.96,0,0,0-7-6.91,7.137,7.137,0,0,0-7,7.039h-7a14,14,0,0,1,27.987-.109c.04,8.717-10.454,9.714-10.454,17.365Z" transform="translate(-108.454 -39.184)" fill="#3d405b" opacity="0.1"/>
  </g>
</svg>
